<?xml version="1.0" encoding="UTF-8" standalone="no"?>
<!-- Created with Inkscape (http://www.inkscape.org/) -->
<svg xmlns:dc="http://purl.org/dc/elements/1.1/" xmlns:cc="http://creativecommons.org/ns#" xmlns:rdf="http://www.w3.org/1999/02/22-rdf-syntax-ns#" xmlns:svg="http://www.w3.org/2000/svg" xmlns="http://www.w3.org/2000/svg" xmlns:sodipodi="http://sodipodi.sourceforge.net/DTD/sodipodi-0.dtd" xmlns:inkscape="http://www.inkscape.org/namespaces/inkscape" width="512" height="595" id="svg2" version="1.1" inkscape:version="0.48.2 r9819" sodipodi:docname="Gettext (no text).svg">
  <title id="title8796">gettext workflow diagram</title>
  <defs id="defs4"/>
  <sodipodi:namedview id="base" pagecolor="#ffffff" bordercolor="#666666" borderopacity="1.0" inkscape:pageopacity="0.0" inkscape:pageshadow="2" inkscape:zoom="0.78917819" inkscape:cx="256" inkscape:cy="297.50003" inkscape:document-units="px" inkscape:current-layer="layer1" showgrid="false" units="px" inkscape:window-width="1024" inkscape:window-height="689" inkscape:window-x="0" inkscape:window-y="27" inkscape:window-maximized="1" showguides="true" inkscape:guide-bbox="true" fit-margin-top="0" fit-margin-left="0" fit-margin-right="0" fit-margin-bottom="0">
    <inkscape:grid type="xygrid" id="grid7486" empspacing="25" dotted="true" visible="true" enabled="true" snapvisiblegridlinesonly="true"/>
  </sodipodi:namedview>
  <metadata id="metadata7">
    <rdf:RDF>
      <cc:Work rdf:about="">
        <dc:format>image/svg+xml</dc:format>
        <dc:type rdf:resource="http://purl.org/dc/dcmitype/StillImage"/>
        <dc:title>gettext workflow diagram</dc:title>
        <cc:license rdf:resource="http://creativecommons.org/licenses/by-sa/3.0/"/>
        <dc:creator>
          <cc:Agent>
            <dc:title>Hydrargyrum</dc:title>
          </cc:Agent>
        </dc:creator>
        <dc:contributor>
          <cc:Agent>
            <dc:title>Based on earlier drawing by Wikipedia user Polluks, as revised by user Efa2.</dc:title>
          </cc:Agent>
        </dc:contributor>
        <dc:description>Reconstructed from scratch with Inkscape 0.48 to replace badly generated SVG drawing by Efa2.  Text font is FreeSans, 14 px &amp; 10 px.  All text converted to paths to preserve rendering on Wikimedia Commons.</dc:description>
      </cc:Work>
      <cc:License rdf:about="http://creativecommons.org/licenses/by-sa/3.0/">
        <cc:permits rdf:resource="http://creativecommons.org/ns#Reproduction"/>
        <cc:permits rdf:resource="http://creativecommons.org/ns#Distribution"/>
        <cc:requires rdf:resource="http://creativecommons.org/ns#Notice"/>
        <cc:requires rdf:resource="http://creativecommons.org/ns#Attribution"/>
        <cc:permits rdf:resource="http://creativecommons.org/ns#DerivativeWorks"/>
        <cc:requires rdf:resource="http://creativecommons.org/ns#ShareAlike"/>
      </cc:License>
    </rdf:RDF>
  </metadata>
  <g inkscape:label="Layer 1" inkscape:groupmode="layer" id="layer1" transform="translate(142.95058,-621.69944)" style="display:inline">
    <g style="font-size:18px;font-style:italic;font-variant:normal;font-weight:normal;font-stretch:normal;text-align:start;line-height:125%;letter-spacing:0px;word-spacing:0px;writing-mode:lr-tb;text-anchor:start;fill:#000000;fill-opacity:1;stroke:none;font-family:Comic Sans MS;-inkscape-font-specification:Sans Italic" id="text7476" transform="matrix(2.5390225,0,0,2.5390225,-147.20039,-1437.9326)">
      <path inkscape:connector-curvature="0" d="m 110.55259,861.44723 1.81,2.71 -0.97,0 -1.31,-2.01 -1.33,2.01 -0.95,0 1.85,-2.67 -1.75,-2.57 0.95,0 1.26,1.9 1.26,-1.9 0.94,0 -1.76,2.53" style="font-size:10px;font-style:normal;fill:#000000;font-family:FreeSans;-inkscape-font-specification:FreeSans" id="path8891"/>
      <path inkscape:connector-curvature="0" d="m 114.98493,864.38723 c -0.61333,0 -1.12666,-0.25 -1.54,-0.75 -0.41333,-0.50667 -0.62,-1.17667 -0.62,-2.01 0,-0.85333 0.20334,-1.54333 0.61,-2.07 0.41334,-0.52666 0.95334,-0.79 1.62,-0.79 0.65334,0 1.18667,0.30333 1.6,0.91 l 0,-0.76 0.77,0 0,4.38 c 0,0.5 -0.03,0.91666 -0.09,1.25 -0.06,0.34 -0.17,0.65333 -0.33,0.94 -0.16,0.28666 -0.4,0.49999 -0.72,0.64 -0.31333,0.13999 -0.71333,0.20999 -1.2,0.21 -0.61333,-10e-6 -1.10333,-0.14001 -1.47,-0.42 -0.36666,-0.28 -0.57333,-0.66667 -0.62,-1.16 l 0.85,0 c 0.0933,0.58666 0.51667,0.88 1.27,0.88 0.56,0 0.94333,-0.16 1.15,-0.48 0.20667,-0.31334 0.31,-0.79334 0.31,-1.44 l 0,-0.27 c -0.23333,0.33333 -0.47667,0.57333 -0.73,0.72 -0.24666,0.14666 -0.53333,0.22 -0.86,0.22 m 0.16,-4.85 c -0.44666,0 -0.8,0.18333 -1.06,0.55 -0.26,0.36667 -0.39,0.86333 -0.39,1.49 0,0.63333 0.13,1.13333 0.39,1.5 0.26,0.36 0.61667,0.54 1.07,0.54 0.44,0 0.78667,-0.17667 1.04,-0.53 0.25333,-0.36 0.38,-0.85333 0.38,-1.48 0,-0.65333 -0.12667,-1.16 -0.38,-1.52 -0.24667,-0.36667 -0.59666,-0.55 -1.05,-0.55" style="font-size:10px;font-style:normal;fill:#000000;font-family:FreeSans;-inkscape-font-specification:FreeSans" id="path8893"/>
      <path inkscape:connector-curvature="0" d="m 123.23134,861.81723 -3.86,0 c 0.007,0.48 0.1,0.85333 0.28,1.12 0.28667,0.45333 0.70667,0.68 1.26,0.68 0.68,0 1.13666,-0.35 1.37,-1.05 l 0.84,0 c -0.10667,0.57333 -0.35667,1.02 -0.75,1.34 -0.39334,0.32 -0.89,0.48 -1.49,0.48 -0.73333,0 -1.31333,-0.24667 -1.74,-0.74 -0.42667,-0.5 -0.64,-1.18 -0.64,-2.04 0,-0.86 0.21667,-1.54667 0.65,-2.06 0.44,-0.52 1.02333,-0.78 1.75,-0.78 0.49333,0 0.92666,0.12334 1.3,0.37 0.38,0.24667 0.65333,0.58333 0.82,1.01 0.14,0.36667 0.21,0.92333 0.21,1.67 m -3.84,-0.68 2.94,0 c 0.007,-0.0133 0.01,-0.0333 0.01,-0.06 0,-0.43333 -0.14,-0.79667 -0.42,-1.09 -0.28,-0.3 -0.62334,-0.45 -1.03,-0.45 -0.42,0 -0.76667,0.14667 -1.04,0.44 -0.27333,0.28667 -0.42667,0.67333 -0.46,1.16" style="font-size:10px;font-style:normal;fill:#000000;font-family:FreeSans;-inkscape-font-specification:FreeSans" id="path8895"/>
      <path inkscape:connector-curvature="0" d="m 126.11009,858.91723 0,0.68 -0.86,0 0,3.59 c 0,0.18666 0.03,0.31333 0.09,0.38 0.0667,0.06 0.19,0.09 0.37,0.09 0.16667,0 0.3,-0.0133 0.4,-0.04 l 0,0.7 c -0.26,0.0467 -0.48667,0.07 -0.68,0.07 -0.32667,0 -0.57667,-0.0733 -0.75,-0.22 -0.17333,-0.14 -0.26,-0.34334 -0.26,-0.61 l 0,-3.96 -0.71,0 0,-0.68 0.71,0 0,-1.44 0.83,0 0,1.44 0.86,0" style="font-size:10px;font-style:normal;fill:#000000;font-family:FreeSans;-inkscape-font-specification:FreeSans" id="path8897"/>
      <path inkscape:connector-curvature="0" d="m 128.72728,858.91723 0,0.68 -0.86,0 0,3.59 c 0,0.18666 0.03,0.31333 0.09,0.38 0.0667,0.06 0.19,0.09 0.37,0.09 0.16666,0 0.3,-0.0133 0.4,-0.04 l 0,0.7 c -0.26,0.0467 -0.48667,0.07 -0.68,0.07 -0.32667,0 -0.57667,-0.0733 -0.75,-0.22 -0.17334,-0.14 -0.26,-0.34334 -0.26,-0.61 l 0,-3.96 -0.71,0 0,-0.68 0.71,0 0,-1.44 0.83,0 0,1.44 0.86,0" style="font-size:10px;font-style:normal;fill:#000000;font-family:FreeSans;-inkscape-font-specification:FreeSans" id="path8899"/>
      <path inkscape:connector-curvature="0" d="m 133.99306,861.81723 -3.86,0 c 0.007,0.48 0.1,0.85333 0.28,1.12 0.28666,0.45333 0.70666,0.68 1.26,0.68 0.68,0 1.13666,-0.35 1.37,-1.05 l 0.84,0 c -0.10667,0.57333 -0.35667,1.02 -0.75,1.34 -0.39334,0.32 -0.89,0.48 -1.49,0.48 -0.73334,0 -1.31333,-0.24667 -1.74,-0.74 -0.42667,-0.5 -0.64,-1.18 -0.64,-2.04 0,-0.86 0.21667,-1.54667 0.65,-2.06 0.44,-0.52 1.02333,-0.78 1.75,-0.78 0.49333,0 0.92666,0.12334 1.3,0.37 0.38,0.24667 0.65333,0.58333 0.82,1.01 0.13999,0.36667 0.20999,0.92333 0.21,1.67 m -3.84,-0.68 2.94,0 c 0.007,-0.0133 0.01,-0.0333 0.01,-0.06 0,-0.43333 -0.14,-0.79667 -0.42,-1.09 -0.28,-0.3 -0.62334,-0.45 -1.03,-0.45 -0.42,0 -0.76667,0.14667 -1.04,0.44 -0.27333,0.28667 -0.42667,0.67333 -0.46,1.16" style="font-size:10px;font-style:normal;fill:#000000;font-family:FreeSans;-inkscape-font-specification:FreeSans" id="path8901"/>
      <path inkscape:connector-curvature="0" d="m 137.15415,861.44723 1.81,2.71 -0.97,0 -1.31,-2.01 -1.33,2.01 -0.95,0 1.85,-2.67 -1.75,-2.57 0.95,0 1.26,1.9 1.26,-1.9 0.94,0 -1.76,2.53" style="font-size:10px;font-style:normal;fill:#000000;font-family:FreeSans;-inkscape-font-specification:FreeSans" id="path8903"/>
      <path inkscape:connector-curvature="0" d="m 141.77415,858.91723 0,0.68 -0.86,0 0,3.59 c 0,0.18666 0.03,0.31333 0.09,0.38 0.0667,0.06 0.19,0.09 0.37,0.09 0.16667,0 0.3,-0.0133 0.4,-0.04 l 0,0.7 c -0.26,0.0467 -0.48666,0.07 -0.68,0.07 -0.32666,0 -0.57666,-0.0733 -0.75,-0.22 -0.17333,-0.14 -0.26,-0.34334 -0.26,-0.61 l 0,-3.96 -0.71,0 0,-0.68 0.71,0 0,-1.44 0.83,0 0,1.44 0.86,0" style="font-size:10px;font-style:normal;fill:#000000;font-family:FreeSans;-inkscape-font-specification:FreeSans" id="path8905"/>
    </g>
    <path d="m 113.04942,877.0058 c -14.19677,0 -26.365442,-1.76358 -38.622294,-5.64343 -12.345032,-3.87988 -21.251085,-8.72969 -28.393584,-15.43129 -7.054293,-6.78978 -10.316911,-13.31499 -10.316911,-21.07473 0,-7.84791 3.262618,-14.37315 10.316911,-21.1629 7.142499,-6.7016 16.048552,-11.55144 28.305404,-15.43129 12.345032,-3.87988 24.513704,-5.64344 38.710474,-5.64344 14.19676,0 26.36543,1.76356 38.62229,5.64344 12.34503,3.87985 21.25108,8.72969 28.39355,15.43129 7.05432,6.78975 10.31694,13.31499 10.31694,21.07472 0,7.84792 -3.26262,14.37313 -10.31694,21.16291 -7.14247,6.7016 -16.04852,11.55141 -28.30537,15.43129 -12.34504,3.87985 -24.51371,5.64343 -38.71047,5.64343 l 0,0" id="path7527" inkscape:connector-curvature="0" style="fill:none;stroke:#000000;stroke-width:2.48858166;stroke-linejoin:round;stroke-opacity:1;visibility:visible"/>
    <g style="font-size:18px;font-style:italic;font-variant:normal;font-weight:normal;font-stretch:normal;text-align:start;line-height:125%;letter-spacing:0px;word-spacing:0px;writing-mode:lr-tb;text-anchor:start;fill:#000000;fill-opacity:1;fill-rule:evenodd;stroke:none;display:inline;font-family:Comic Sans MS;-inkscape-font-specification:Sans Italic" id="text7529" transform="matrix(2.5390225,0,0,2.5390225,-147.20039,-1437.9326)">
      <path inkscape:connector-curvature="0" d="m 84.885705,892.89294 0,0.952 -1.218,0 0,6.384 -1.162,0 0,-6.384 -0.98,0 0,-0.952 0.98,0 0,-1.246 c -2e-6,-0.52265 0.149331,-0.92865 0.448,-1.218 0.307998,-0.29865 0.732664,-0.44799 1.274,-0.448 0.214663,10e-6 0.433996,0.0233 0.658,0.07 l 0,0.966 c -0.177337,-0.009 -0.31267,-0.014 -0.406,-0.014 -0.541336,1e-5 -0.812003,0.24735 -0.812,0.742 l 0,1.148 1.218,0" style="font-size:14px;font-style:normal;text-align:center;text-anchor:middle;fill:#000000;font-family:FreeSans;-inkscape-font-specification:FreeSans" id="path8865"/>
      <path inkscape:connector-curvature="0" d="m 88.69108,892.68294 c 1.054661,10e-6 1.871327,0.35001 2.45,1.05 0.587993,0.69068 0.881992,1.67067 0.882,2.94 -8e-6,1.20401 -0.298674,2.15134 -0.896,2.842 -0.588006,0.69067 -1.395339,1.036 -2.422,1.036 -1.045337,0 -1.862002,-0.34533 -2.45,-1.036 -0.578668,-0.7 -0.868001,-1.66599 -0.868,-2.898 -10e-7,-1.23199 0.293999,-2.19332 0.882,-2.884 0.587998,-0.69999 1.39533,-1.04999 2.422,-1.05 m 0.014,1.078 c -0.653337,10e-6 -1.16667,0.25668 -1.54,0.77 -0.373336,0.50401 -0.560002,1.19934 -0.56,2.086 -2e-6,0.88667 0.186664,1.58667 0.56,2.1 0.37333,0.504 0.886663,0.756 1.54,0.756 0.643995,0 1.152661,-0.252 1.526,-0.756 0.38266,-0.51333 0.573994,-1.19933 0.574,-2.058 -6e-6,-0.90533 -0.186673,-1.61466 -0.56,-2.128 -0.364005,-0.51332 -0.877338,-0.76999 -1.54,-0.77" style="font-size:14px;font-style:normal;text-align:center;text-anchor:middle;fill:#000000;font-family:FreeSans;-inkscape-font-specification:FreeSans" id="path8867"/>
      <path inkscape:connector-curvature="0" d="m 96.484048,892.68294 c 1.054662,10e-6 1.871328,0.35001 2.45,1.05 0.587993,0.69068 0.881993,1.67067 0.882,2.94 -7e-6,1.20401 -0.298673,2.15134 -0.896,2.842 -0.588005,0.69067 -1.395338,1.036 -2.422,1.036 -1.045336,0 -1.862002,-0.34533 -2.45,-1.036 -0.578667,-0.7 -0.868,-1.66599 -0.868,-2.898 0,-1.23199 0.293999,-2.19332 0.882,-2.884 0.587998,-0.69999 1.395331,-1.04999 2.422,-1.05 m 0.014,1.078 c -0.653336,10e-6 -1.166669,0.25668 -1.54,0.77 -0.373335,0.50401 -0.560001,1.19934 -0.56,2.086 -10e-7,0.88667 0.186665,1.58667 0.56,2.1 0.373331,0.504 0.886664,0.756 1.54,0.756 0.643996,0 1.152662,-0.252 1.526,-0.756 0.382661,-0.51333 0.573994,-1.19933 0.574,-2.058 -6e-6,-0.90533 -0.186672,-1.61466 -0.56,-2.128 -0.364005,-0.51332 -0.877338,-0.76999 -1.54,-0.77" style="font-size:14px;font-style:normal;text-align:center;text-anchor:middle;fill:#000000;font-family:FreeSans;-inkscape-font-specification:FreeSans" id="path8869"/>
      <path inkscape:connector-curvature="0" d="m 103.14302,898.77294 0,1.456 -1.456,0 0,-1.456 1.456,0" style="font-size:14px;font-style:normal;text-align:center;text-anchor:middle;fill:#000000;font-family:FreeSans;-inkscape-font-specification:FreeSans" id="path8871"/>
      <path inkscape:connector-curvature="0" d="m 105.10783,903.28094 0,-10.388 1.078,0 0,1.106 c 0.55066,-0.87732 1.33,-1.31599 2.338,-1.316 0.97066,10e-6 1.73599,0.35934 2.296,1.078 0.56933,0.71868 0.85399,1.69401 0.854,2.926 -10e-6,1.16667 -0.28934,2.10467 -0.868,2.814 -0.56934,0.7 -1.32534,1.05 -2.268,1.05 -0.90534,0 -1.65667,-0.364 -2.254,-1.092 l 0,3.822 -1.176,0 m 3.22,-9.506 c -0.616,10e-6 -1.11067,0.26134 -1.484,0.784 -0.37334,0.51334 -0.56,1.19934 -0.56,2.058 0,0.85867 0.18666,1.54934 0.56,2.072 0.37333,0.51334 0.868,0.77 1.484,0.77 0.63466,0 1.14799,-0.25666 1.54,-0.77 0.39199,-0.52266 0.58799,-1.19933 0.588,-2.03 -1e-5,-0.87733 -0.19601,-1.57733 -0.588,-2.1 -0.38267,-0.52266 -0.89601,-0.78399 -1.54,-0.784" style="font-size:14px;font-style:normal;text-align:center;text-anchor:middle;fill:#000000;font-family:FreeSans;-inkscape-font-specification:FreeSans" id="path8873"/>
      <path inkscape:connector-curvature="0" d="m 115.9528,892.68294 c 1.05466,10e-6 1.87133,0.35001 2.45,1.05 0.58799,0.69068 0.88199,1.67067 0.882,2.94 -1e-5,1.20401 -0.29868,2.15134 -0.896,2.842 -0.58801,0.69067 -1.39534,1.036 -2.422,1.036 -1.04534,0 -1.862,-0.34533 -2.45,-1.036 -0.57867,-0.7 -0.868,-1.66599 -0.868,-2.898 0,-1.23199 0.294,-2.19332 0.882,-2.884 0.588,-0.69999 1.39533,-1.04999 2.422,-1.05 m 0.014,1.078 c -0.65334,10e-6 -1.16667,0.25668 -1.54,0.77 -0.37334,0.50401 -0.56,1.19934 -0.56,2.086 0,0.88667 0.18666,1.58667 0.56,2.1 0.37333,0.504 0.88666,0.756 1.54,0.756 0.64399,0 1.15266,-0.252 1.526,-0.756 0.38266,-0.51333 0.57399,-1.19933 0.574,-2.058 -1e-5,-0.90533 -0.18667,-1.61466 -0.56,-2.128 -0.36401,-0.51332 -0.87734,-0.76999 -1.54,-0.77" style="font-size:14px;font-style:normal;text-align:center;text-anchor:middle;fill:#000000;font-family:FreeSans;-inkscape-font-specification:FreeSans" id="path8875"/>
      <path inkscape:connector-curvature="0" d="m 123.35705,892.89294 0,0.952 -1.204,0 0,5.026 c 0,0.26134 0.042,0.43867 0.126,0.532 0.0933,0.084 0.266,0.126 0.518,0.126 0.23333,0 0.41999,-0.0187 0.56,-0.056 l 0,0.98 c -0.364,0.0653 -0.68134,0.098 -0.952,0.098 -0.45734,0 -0.80734,-0.10266 -1.05,-0.308 -0.24267,-0.196 -0.364,-0.48066 -0.364,-0.854 l 0,-5.544 -0.994,0 0,-0.952 0.994,0 0,-2.016 1.162,0 0,2.016 1.204,0" style="font-size:14px;font-style:normal;text-align:center;text-anchor:middle;fill:#000000;font-family:FreeSans;-inkscape-font-specification:FreeSans" id="path8877"/>
    </g>
    <g id="g7554" style="fill:#000000;stroke:none" transform="matrix(2.5390225,0,0,2.5390225,-569.39388,-1437.9327)">
      <path d="m 271.7819,869.01785 -3,9 -3,-9 z" id="path7550" inkscape:connector-curvature="0" style="fill:#000000;fill-rule:evenodd;stroke:none;visibility:visible" sodipodi:nodetypes="cccc"/>
      <path style="fill:#000000;fill-opacity:1;stroke:none" d="m 268.2819,845.79666 1,0 0,25.89433 -1,0 z" id="path7552" inkscape:connector-curvature="0"/>
    </g>
    <path style="fill:none;stroke:#000000;stroke-width:2.48858166;stroke-linejoin:round;stroke-opacity:1;visibility:visible" inkscape:connector-curvature="0" id="path7594" d="m 112.17437,1045.6919 c -14.196769,0 -26.365441,-1.7636 -38.622292,-5.6435 -12.345033,-3.8798 -21.251086,-8.7296 -28.393584,-15.4311 -7.054294,-6.7899 -10.316912,-13.3152 -10.316912,-21.0749 0,-7.84788 3.262618,-14.37317 10.316912,-21.16277 7.142498,-6.70175 16.048551,-11.55154 28.305403,-15.43142 12.345032,-3.87988 24.513704,-5.64348 38.710473,-5.64348 14.19676,0 26.36544,1.7636 38.62229,5.64348 12.34503,3.87988 21.25108,8.72967 28.39356,15.43142 7.05431,6.7896 10.31693,13.31489 10.31693,21.07467 0,7.8478 -3.26262,14.3731 -10.31693,21.163 -7.14248,6.7015 -16.04853,11.5513 -28.30538,15.4311 -12.34503,3.8799 -24.51371,5.6435 -38.71047,5.6435 l 0,0"/>
    <g style="font-size:18px;font-style:italic;font-variant:normal;font-weight:normal;font-stretch:normal;text-align:start;line-height:125%;letter-spacing:0px;word-spacing:0px;writing-mode:lr-tb;text-anchor:start;fill:#000000;fill-opacity:1;fill-rule:evenodd;stroke:none;display:inline;font-family:Comic Sans MS;-inkscape-font-specification:Sans Italic" id="text7596" transform="matrix(2.5390225,0,0,2.5390225,-147.20039,-1437.9326)">
      <path inkscape:connector-curvature="0" d="m 92.253648,963.39044 -5.404,0 c 0.0093,0.67201 0.139998,1.19467 0.392,1.568 0.40133,0.63467 0.98933,0.952 1.764,0.952 0.951995,0 1.591327,-0.49 1.918,-1.47 l 1.176,0 c -0.149341,0.80267 -0.49934,1.428 -1.05,1.876 -0.550672,0.448 -1.246005,0.672 -2.086,0.672 -1.02667,0 -1.838669,-0.34533 -2.436,-1.036 -0.597335,-0.7 -0.896001,-1.65199 -0.896,-2.856 -10e-7,-1.20399 0.303332,-2.16532 0.91,-2.884 0.615998,-0.72799 1.432663,-1.09199 2.45,-1.092 0.690662,10e-6 1.297328,0.17268 1.82,0.518 0.531993,0.34534 0.91466,0.81668 1.148,1.414 0.195993,0.51334 0.293992,1.29267 0.294,2.338 m -5.376,-0.952 4.116,0 c 0.0093,-0.0187 0.01399,-0.0467 0.014,-0.084 -6e-6,-0.60666 -0.196006,-1.11533 -0.588,-1.526 -0.392005,-0.41999 -0.872671,-0.62999 -1.442,-0.63 -0.588004,10e-6 -1.073337,0.20534 -1.456,0.616 -0.382669,0.40134 -0.597336,0.94267 -0.644,1.624" style="font-size:14px;font-style:normal;text-align:center;text-anchor:middle;fill:#000000;font-family:FreeSans;-inkscape-font-specification:FreeSans" id="path8997"/>
      <path inkscape:connector-curvature="0" d="m 94.435898,964.48244 c 0.056,0.43867 0.205331,0.78867 0.448,1.05 0.251997,0.252 0.699997,0.378 1.344,0.378 0.513329,0 0.923995,-0.10266 1.232,-0.308 0.317328,-0.21466 0.475994,-0.49466 0.476,-0.84 -6e-6,-0.27066 -0.08867,-0.48533 -0.266,-0.644 -0.177338,-0.15866 -0.466671,-0.28466 -0.868,-0.378 l -1.092,-0.266 c -0.868002,-0.20533 -1.474669,-0.46199 -1.82,-0.77 -0.336001,-0.31733 -0.504001,-0.76533 -0.504,-1.344 -10e-7,-0.68132 0.256665,-1.22266 0.77,-1.624 0.513331,-0.41066 1.194664,-0.61599 2.044,-0.616 0.849329,10e-6 1.502661,0.19601 1.96,0.588 0.457327,0.39201 0.69066,0.94734 0.7,1.666 l -1.232,0 c -0.02801,-0.78399 -0.518005,-1.17599 -1.47,-1.176 -0.476003,10e-6 -0.854003,0.10268 -1.134,0.308 -0.280002,0.19601 -0.420002,0.46201 -0.42,0.798 -2e-6,0.26134 0.107331,0.47601 0.322,0.644 0.214664,0.15867 0.559997,0.29401 1.036,0.406 l 1.12,0.266 c 0.727995,0.17734 1.255327,0.42934 1.582,0.756 0.32666,0.31734 0.489993,0.74667 0.49,1.288 -7e-6,0.70934 -0.27534,1.274 -0.826,1.694 -0.541339,0.42 -1.274005,0.63 -2.198,0.63 -1.894669,0 -2.870001,-0.83533 -2.926,-2.506 l 1.232,0" style="font-size:14px;font-style:normal;text-align:center;text-anchor:middle;fill:#000000;font-family:FreeSans;-inkscape-font-specification:FreeSans" id="path8999"/>
      <path inkscape:connector-curvature="0" d="m 102.4019,965.21044 0,1.456 -1.456,0 0,-1.456 1.456,0" style="font-size:14px;font-style:normal;text-align:center;text-anchor:middle;fill:#000000;font-family:FreeSans;-inkscape-font-specification:FreeSans" id="path9001"/>
      <path inkscape:connector-curvature="0" d="m 104.36671,969.71844 0,-10.388 1.078,0 0,1.106 c 0.55066,-0.87732 1.33,-1.31599 2.338,-1.316 0.97066,10e-6 1.73599,0.35934 2.296,1.078 0.56933,0.71868 0.85399,1.69401 0.854,2.926 -1e-5,1.16667 -0.28934,2.10467 -0.868,2.814 -0.56934,0.7 -1.32534,1.05 -2.268,1.05 -0.90534,0 -1.65667,-0.364 -2.254,-1.092 l 0,3.822 -1.176,0 m 3.22,-9.506 c -0.616,10e-6 -1.11067,0.26134 -1.484,0.784 -0.37334,0.51334 -0.56,1.19934 -0.56,2.058 0,0.85867 0.18666,1.54934 0.56,2.072 0.37333,0.51334 0.868,0.77 1.484,0.77 0.63466,0 1.148,-0.25666 1.54,-0.77 0.39199,-0.52266 0.58799,-1.19933 0.588,-2.03 -1e-5,-0.87733 -0.19601,-1.57733 -0.588,-2.1 -0.38267,-0.52266 -0.896,-0.78399 -1.54,-0.784" style="font-size:14px;font-style:normal;text-align:center;text-anchor:middle;fill:#000000;font-family:FreeSans;-inkscape-font-specification:FreeSans" id="path9003"/>
      <path inkscape:connector-curvature="0" d="m 115.21168,959.12044 c 1.05466,10e-6 1.87133,0.35001 2.45,1.05 0.58799,0.69068 0.88199,1.67067 0.882,2.94 -10e-6,1.20401 -0.29867,2.15134 -0.896,2.842 -0.58801,0.69067 -1.39534,1.036 -2.422,1.036 -1.04534,0 -1.862,-0.34533 -2.45,-1.036 -0.57867,-0.7 -0.868,-1.66599 -0.868,-2.898 0,-1.23199 0.294,-2.19332 0.882,-2.884 0.588,-0.69999 1.39533,-1.04999 2.422,-1.05 m 0.014,1.078 c -0.65334,10e-6 -1.16667,0.25668 -1.54,0.77 -0.37334,0.50401 -0.56,1.19934 -0.56,2.086 0,0.88667 0.18666,1.58667 0.56,2.1 0.37333,0.504 0.88666,0.756 1.54,0.756 0.64399,0 1.15266,-0.252 1.526,-0.756 0.38266,-0.51333 0.57399,-1.19933 0.574,-2.058 -1e-5,-0.90533 -0.18667,-1.61466 -0.56,-2.128 -0.36401,-0.51332 -0.87734,-0.76999 -1.54,-0.77" style="font-size:14px;font-style:normal;text-align:center;text-anchor:middle;fill:#000000;font-family:FreeSans;-inkscape-font-specification:FreeSans" id="path9005"/>
    </g>
    <path d="m 113.92449,1214.4661 c -14.196766,0 -26.365438,-1.7636 -38.62229,-5.6434 -12.345032,-3.8799 -21.251085,-8.7297 -28.393584,-15.4315 -7.054293,-6.7896 -10.316911,-13.3148 -10.316911,-21.0746 0,-7.8479 3.262618,-14.3732 10.316911,-21.1628 7.142499,-6.7017 16.048552,-11.5515 28.305404,-15.4314 12.345032,-3.8799 24.513704,-5.6435 38.71047,-5.6435 14.19677,0 26.36544,1.7636 38.62229,5.6435 12.34503,3.8799 21.25109,8.7297 28.39356,15.4314 7.05432,6.7896 10.31694,13.3149 10.31694,21.0747 0,7.8479 -3.26262,14.3731 -10.31694,21.1627 -7.14247,6.7018 -16.04853,11.5516 -28.30538,15.4315 -12.34503,3.8798 -24.5137,5.6434 -38.71047,5.6434 l 0,0" id="path7602" inkscape:connector-curvature="0" style="fill:none;stroke:#000000;stroke-width:2.48858166;stroke-linejoin:round;stroke-opacity:1;visibility:visible"/>
    <g style="font-size:18px;font-style:italic;font-variant:normal;font-weight:normal;font-stretch:normal;text-align:start;line-height:125%;letter-spacing:0px;word-spacing:0px;writing-mode:lr-tb;text-anchor:start;fill:#000000;fill-opacity:1;fill-rule:evenodd;stroke:none;display:inline;font-family:Comic Sans MS;-inkscape-font-specification:Sans Italic" id="text7604" transform="matrix(2.5390225,0,0,2.5390225,-147.20039,-1437.9326)">
      <path inkscape:connector-curvature="0" d="m 91.069871,1029.8624 -5.404,0 c 0.0093,0.672 0.139998,1.1947 0.392,1.568 0.401331,0.6347 0.98933,0.952 1.764,0.952 0.951995,0 1.591328,-0.49 1.918,-1.47 l 1.176,0 c -0.14934,0.8027 -0.49934,1.428 -1.05,1.876 -0.550672,0.448 -1.246005,0.672 -2.086,0.672 -1.02667,0 -1.838669,-0.3453 -2.436,-1.036 -0.597334,-0.7 -0.896001,-1.652 -0.896,-2.856 -1e-6,-1.204 0.303332,-2.1653 0.91,-2.884 0.615998,-0.728 1.432664,-1.092 2.45,-1.092 0.690662,0 1.297328,0.1727 1.82,0.518 0.531994,0.3454 0.91466,0.8167 1.148,1.414 0.195993,0.5134 0.293993,1.2927 0.294,2.338 m -5.376,-0.952 4.116,0 c 0.0093,-0.019 0.01399,-0.047 0.014,-0.084 -6e-6,-0.6066 -0.196006,-1.1153 -0.588,-1.526 -0.392005,-0.42 -0.872671,-0.63 -1.442,-0.63 -0.588004,0 -1.073336,0.2054 -1.456,0.616 -0.382669,0.4014 -0.597335,0.9427 -0.644,1.624" style="font-size:14px;font-style:normal;text-align:center;text-anchor:middle;fill:#000000;font-family:FreeSans;-inkscape-font-specification:FreeSans" id="path8964"/>
      <path inkscape:connector-curvature="0" d="m 93.252121,1030.9544 c 0.056,0.4387 0.205331,0.7887 0.448,1.05 0.251997,0.252 0.699997,0.378 1.344,0.378 0.513329,0 0.923995,-0.1026 1.232,-0.308 0.317328,-0.2146 0.475995,-0.4946 0.476,-0.84 -5e-6,-0.2706 -0.08867,-0.4853 -0.266,-0.644 -0.177338,-0.1586 -0.466671,-0.2846 -0.868,-0.378 l -1.092,-0.266 c -0.868002,-0.2053 -1.474668,-0.462 -1.82,-0.77 -0.336001,-0.3173 -0.504001,-0.7653 -0.504,-1.344 -1e-6,-0.6813 0.256666,-1.2226 0.77,-1.624 0.513331,-0.4106 1.194664,-0.616 2.044,-0.616 0.849329,0 1.502661,0.196 1.96,0.588 0.457327,0.392 0.69066,0.9474 0.7,1.666 l -1.232,0 c -0.028,-0.784 -0.518005,-1.176 -1.47,-1.176 -0.476003,0 -0.854003,0.1027 -1.134,0.308 -0.280002,0.196 -0.420002,0.462 -0.42,0.798 -2e-6,0.2614 0.107331,0.476 0.322,0.644 0.214664,0.1587 0.559997,0.294 1.036,0.406 l 1.12,0.266 c 0.727995,0.1774 1.255328,0.4294 1.582,0.756 0.32666,0.3174 0.489993,0.7467 0.49,1.288 -7e-6,0.7094 -0.27534,1.274 -0.826,1.694 -0.541339,0.42 -1.274005,0.63 -2.198,0.63 -1.894668,0 -2.870001,-0.8353 -2.926,-2.506 l 1.232,0" style="font-size:14px;font-style:normal;text-align:center;text-anchor:middle;fill:#000000;font-family:FreeSans;-inkscape-font-specification:FreeSans" id="path8966"/>
      <path inkscape:connector-curvature="0" d="m 101.21812,1031.6824 0,1.456 -1.455999,0 0,-1.456 1.455999,0" style="font-size:14px;font-style:normal;text-align:center;text-anchor:middle;fill:#000000;font-family:FreeSans;-inkscape-font-specification:FreeSans" id="path8968"/>
      <path inkscape:connector-curvature="0" d="m 103.40693,1025.8024 1.078,0 0,1.036 c 0.31733,-0.4386 0.64867,-0.756 0.994,-0.952 0.35467,-0.196 0.77467,-0.294 1.26,-0.294 0.90533,0 1.56333,0.3734 1.974,1.12 0.34533,-0.4106 0.686,-0.7 1.022,-0.868 0.336,-0.168 0.74666,-0.252 1.232,-0.252 0.68133,0 1.20399,0.1774 1.568,0.532 0.37333,0.3454 0.55999,0.8494 0.56,1.512 l 0,5.502 -1.176,0 0,-5.054 c -1e-5,-0.4666 -0.12134,-0.826 -0.364,-1.078 -0.23334,-0.2613 -0.56467,-0.392 -0.994,-0.392 -0.476,0 -0.882,0.1867 -1.218,0.56 -0.336,0.3734 -0.504,0.826 -0.504,1.358 l 0,4.606 -1.176,0 0,-5.054 c 0,-0.4666 -0.12134,-0.826 -0.364,-1.078 -0.23333,-0.2613 -0.56467,-0.392 -0.994,-0.392 -0.476,0 -0.882,0.1867 -1.218,0.56 -0.336,0.3734 -0.504,0.826 -0.504,1.358 l 0,4.606 -1.176,0 0,-7.336" style="font-size:14px;font-style:normal;text-align:center;text-anchor:middle;fill:#000000;font-family:FreeSans;-inkscape-font-specification:FreeSans" id="path8970"/>
      <path inkscape:connector-curvature="0" d="m 117.774,1025.5924 c 1.05466,0 1.87132,0.35 2.45,1.05 0.58799,0.6907 0.88199,1.6707 0.882,2.94 -10e-6,1.204 -0.29868,2.1514 -0.896,2.842 -0.58801,0.6907 -1.39534,1.036 -2.422,1.036 -1.04534,0 -1.86201,-0.3453 -2.45,-1.036 -0.57867,-0.7 -0.868,-1.666 -0.868,-2.898 0,-1.232 0.29399,-2.1933 0.882,-2.884 0.58799,-0.7 1.39533,-1.05 2.422,-1.05 m 0.014,1.078 c -0.65334,0 -1.16667,0.2567 -1.54,0.77 -0.37334,0.504 -0.56001,1.1994 -0.56,2.086 -1e-5,0.8867 0.18666,1.5867 0.56,2.1 0.37333,0.504 0.88666,0.756 1.54,0.756 0.64399,0 1.15266,-0.252 1.526,-0.756 0.38266,-0.5133 0.57399,-1.1993 0.574,-2.058 -1e-5,-0.9053 -0.18668,-1.6146 -0.56,-2.128 -0.36401,-0.5133 -0.87734,-0.77 -1.54,-0.77" style="font-size:14px;font-style:normal;text-align:center;text-anchor:middle;fill:#000000;font-family:FreeSans;-inkscape-font-specification:FreeSans" id="path8972"/>
    </g>
    <path d="m -63.373445,1045.6919 c -14.196792,0 -26.365464,-1.7636 -38.622315,-5.6435 -12.34503,-3.8798 -21.25109,-8.7296 -28.39358,-15.4311 -7.0543,-6.7899 -10.31692,-13.3152 -10.31692,-21.0749 0,-7.84788 3.26262,-14.37317 10.31692,-21.16277 7.14249,-6.70175 16.04855,-11.55154 28.3054,-15.43142 12.345031,-3.87988 24.513703,-5.64348 38.710495,-5.64348 14.196767,0 26.365438,1.7636 38.62229,5.64348 12.345032,3.87988 21.2510851,8.72967 28.3935585,15.43142 7.0543185,6.7896 10.3169375,13.31489 10.3169375,21.07467 0,7.8478 -3.262619,14.3731 -10.3169375,21.163 -7.1424734,6.7015 -16.0485265,11.5513 -28.3053785,15.4311 -12.345032,3.8799 -24.513703,5.6435 -38.71047,5.6435 l 0,0" id="path7533" inkscape:connector-curvature="0" style="fill:none;stroke:#000000;stroke-width:2.48858166;stroke-linejoin:round;stroke-opacity:1;visibility:visible"/>
    <g style="font-size:18px;font-style:italic;font-variant:normal;font-weight:normal;font-stretch:normal;text-align:start;line-height:125%;letter-spacing:0px;word-spacing:0px;writing-mode:lr-tb;text-anchor:start;fill:#000000;fill-opacity:1;fill-rule:evenodd;stroke:none;display:inline;font-family:Comic Sans MS;-inkscape-font-specification:Sans Italic" id="text7535" transform="matrix(2.5390225,0,0,2.5390225,-147.20039,-1437.9326)">
      <path inkscape:connector-curvature="0" d="m 22.396866,956.46044 0,10.206 -1.036,0 0,-0.966 c -0.317339,0.45734 -0.662672,0.784 -1.036,0.98 -0.364005,0.20534 -0.798005,0.308 -1.302,0.308 -0.989336,0 -1.768669,-0.35466 -2.338,-1.064 -0.569334,-0.71866 -0.854001,-1.69866 -0.854,-2.94 -1e-6,-1.16666 0.284666,-2.09999 0.854,-2.8 0.578664,-0.70932 1.343997,-1.06399 2.296,-1.064 1.007995,10e-6 1.759328,0.37801 2.254,1.134 l 0,-3.794 1.162,0 m -3.22,3.752 c -0.63467,10e-6 -1.148003,0.26134 -1.54,0.784 -0.392002,0.52267 -0.588002,1.20867 -0.588,2.058 -2e-6,0.85867 0.195998,1.54934 0.588,2.072 0.391997,0.51334 0.909996,0.77 1.554,0.77 0.615995,0 1.110661,-0.25666 1.484,-0.77 0.373327,-0.51333 0.559994,-1.19466 0.56,-2.044 -6e-6,-0.87733 -0.186673,-1.57266 -0.56,-2.086 -0.373339,-0.52266 -0.872671,-0.78399 -1.498,-0.784" style="font-size:14px;font-style:normal;text-align:center;text-anchor:middle;fill:#000000;font-family:FreeSans;-inkscape-font-specification:FreeSans" id="path8880"/>
      <path inkscape:connector-curvature="0" d="m 30.441834,963.39044 -5.404,0 c 0.0093,0.67201 0.139998,1.19467 0.392,1.568 0.401331,0.63467 0.98933,0.952 1.764,0.952 0.951995,0 1.591328,-0.49 1.918,-1.47 l 1.176,0 c -0.14934,0.80267 -0.49934,1.428 -1.05,1.876 -0.550672,0.448 -1.246004,0.672 -2.086,0.672 -1.026669,0 -1.838668,-0.34533 -2.436,-1.036 -0.597334,-0.7 -0.896,-1.65199 -0.896,-2.856 0,-1.20399 0.303333,-2.16532 0.91,-2.884 0.615998,-0.72799 1.432664,-1.09199 2.45,-1.092 0.690662,10e-6 1.297328,0.17268 1.82,0.518 0.531994,0.34534 0.91466,0.81668 1.148,1.414 0.195993,0.51334 0.293993,1.29267 0.294,2.338 m -5.376,-0.952 4.116,0 c 0.0093,-0.0187 0.01399,-0.0467 0.014,-0.084 -6e-6,-0.60666 -0.196005,-1.11533 -0.588,-1.526 -0.392005,-0.41999 -0.872671,-0.62999 -1.442,-0.63 -0.588003,10e-6 -1.073336,0.20534 -1.456,0.616 -0.382668,0.40134 -0.597335,0.94267 -0.644,1.624" style="font-size:14px;font-style:normal;text-align:center;text-anchor:middle;fill:#000000;font-family:FreeSans;-inkscape-font-specification:FreeSans" id="path8882"/>
      <path inkscape:connector-curvature="0" d="m 33.726803,965.21044 0,1.456 -1.456,0 0,-1.456 1.456,0" style="font-size:14px;font-style:normal;text-align:center;text-anchor:middle;fill:#000000;font-family:FreeSans;-inkscape-font-specification:FreeSans" id="path8884"/>
      <path inkscape:connector-curvature="0" d="m 35.691616,969.71844 0,-10.388 1.078,0 0,1.106 c 0.550664,-0.87732 1.329996,-1.31599 2.338,-1.316 0.970661,10e-6 1.735994,0.35934 2.296,1.078 0.569326,0.71868 0.853992,1.69401 0.854,2.926 -8e-6,1.16667 -0.289341,2.10467 -0.868,2.814 -0.56934,0.7 -1.325339,1.05 -2.268,1.05 -0.905337,0 -1.65667,-0.364 -2.254,-1.092 l 0,3.822 -1.176,0 m 3.22,-9.506 c -0.616004,10e-6 -1.11067,0.26134 -1.484,0.784 -0.373336,0.51334 -0.560002,1.19934 -0.56,2.058 -2e-6,0.85867 0.186664,1.54934 0.56,2.072 0.37333,0.51334 0.867996,0.77 1.484,0.77 0.634662,0 1.147994,-0.25666 1.54,-0.77 0.391994,-0.52266 0.587993,-1.19933 0.588,-2.03 -7e-6,-0.87733 -0.196006,-1.57733 -0.588,-2.1 -0.382672,-0.52266 -0.896005,-0.78399 -1.54,-0.784" style="font-size:14px;font-style:normal;text-align:center;text-anchor:middle;fill:#000000;font-family:FreeSans;-inkscape-font-specification:FreeSans" id="path8886"/>
      <path inkscape:connector-curvature="0" d="m 46.536584,959.12044 c 1.054662,10e-6 1.871328,0.35001 2.45,1.05 0.587993,0.69068 0.881993,1.67067 0.882,2.94 -7e-6,1.20401 -0.298673,2.15134 -0.896,2.842 -0.588005,0.69067 -1.395338,1.036 -2.422,1.036 -1.045336,0 -1.862002,-0.34533 -2.45,-1.036 -0.578667,-0.7 -0.868,-1.66599 -0.868,-2.898 0,-1.23199 0.293999,-2.19332 0.882,-2.884 0.587998,-0.69999 1.395331,-1.04999 2.422,-1.05 m 0.014,1.078 c -0.653336,10e-6 -1.166669,0.25668 -1.54,0.77 -0.373335,0.50401 -0.560001,1.19934 -0.56,2.086 -10e-7,0.88667 0.186665,1.58667 0.56,2.1 0.373331,0.504 0.886664,0.756 1.54,0.756 0.643996,0 1.152662,-0.252 1.526,-0.756 0.382661,-0.51333 0.573994,-1.19933 0.574,-2.058 -6e-6,-0.90533 -0.186672,-1.61466 -0.56,-2.128 -0.364005,-0.51332 -0.877338,-0.76999 -1.54,-0.77" style="font-size:14px;font-style:normal;text-align:center;text-anchor:middle;fill:#000000;font-family:FreeSans;-inkscape-font-specification:FreeSans" id="path8888"/>
    </g>
    <path style="fill:none;stroke:#000000;stroke-width:2.48858166;stroke-linejoin:round;stroke-opacity:1;visibility:visible" inkscape:connector-curvature="0" id="path7539" d="m -63.373445,1214.4661 c -14.196792,0 -26.365464,-1.7636 -38.622315,-5.6434 -12.34503,-3.8799 -21.25109,-8.7297 -28.39358,-15.4315 -7.0543,-6.7896 -10.31692,-13.3148 -10.31692,-21.0746 0,-7.8479 3.26262,-14.3732 10.31692,-21.1628 7.14249,-6.7017 16.04855,-11.5515 28.3054,-15.4314 12.345031,-3.8799 24.513703,-5.6435 38.710495,-5.6435 14.196767,0 26.365438,1.7636 38.62229,5.6435 12.345032,3.8799 21.2510851,8.7297 28.3935585,15.4314 7.0543185,6.7896 10.3169375,13.3149 10.3169375,21.0747 0,7.8479 -3.262619,14.3731 -10.3169375,21.1627 -7.1424734,6.7018 -16.0485265,11.5516 -28.3053785,15.4315 -12.345032,3.8798 -24.513703,5.6434 -38.71047,5.6434 l 0,0"/>
    <g style="font-size:18px;font-style:italic;font-variant:normal;font-weight:normal;font-stretch:normal;text-align:start;line-height:125%;letter-spacing:0px;word-spacing:0px;writing-mode:lr-tb;text-anchor:start;fill:#000000;fill-opacity:1;fill-rule:evenodd;stroke:none;display:inline;font-family:Comic Sans MS;-inkscape-font-specification:Sans Italic" id="text7541" transform="matrix(2.5390225,0,0,2.5390225,-147.20039,-1437.9326)">
      <path inkscape:connector-curvature="0" d="m 20.523819,1022.9324 0,10.206 -1.036,0 0,-0.966 c -0.317339,0.4574 -0.662672,0.784 -1.036,0.98 -0.364005,0.2054 -0.798004,0.308 -1.302,0.308 -0.989336,0 -1.768669,-0.3546 -2.338,-1.064 -0.569334,-0.7186 -0.854001,-1.6986 -0.854,-2.94 -1e-6,-1.1666 0.284666,-2.1 0.854,-2.8 0.578665,-0.7093 1.343997,-1.064 2.296,-1.064 1.007995,0 1.759328,0.378 2.254,1.134 l 0,-3.794 1.162,0 m -3.22,3.752 c -0.63467,0 -1.148003,0.2614 -1.54,0.784 -0.392002,0.5227 -0.588002,1.2087 -0.588,2.058 -2e-6,0.8587 0.195998,1.5494 0.588,2.072 0.391997,0.5134 0.909997,0.77 1.554,0.77 0.615995,0 1.110661,-0.2566 1.484,-0.77 0.373327,-0.5133 0.559994,-1.1946 0.56,-2.044 -6e-6,-0.8773 -0.186673,-1.5726 -0.56,-2.086 -0.373339,-0.5226 -0.872671,-0.784 -1.498,-0.784" style="font-size:14px;font-style:normal;text-align:center;text-anchor:middle;fill:#000000;font-family:FreeSans;-inkscape-font-specification:FreeSans" id="path8975"/>
      <path inkscape:connector-curvature="0" d="m 28.568787,1029.8624 -5.404,0 c 0.0093,0.672 0.139998,1.1947 0.392,1.568 0.401331,0.6347 0.989331,0.952 1.764,0.952 0.951996,0 1.591328,-0.49 1.918,-1.47 l 1.176,0 c -0.14934,0.8027 -0.499339,1.428 -1.05,1.876 -0.550672,0.448 -1.246004,0.672 -2.086,0.672 -1.026669,0 -1.838668,-0.3453 -2.436,-1.036 -0.597334,-0.7 -0.896,-1.652 -0.896,-2.856 0,-1.204 0.303333,-2.1653 0.91,-2.884 0.615998,-0.728 1.432664,-1.092 2.45,-1.092 0.690662,0 1.297329,0.1727 1.82,0.518 0.531994,0.3454 0.91466,0.8167 1.148,1.414 0.195993,0.5134 0.293993,1.2927 0.294,2.338 m -5.376,-0.952 4.116,0 c 0.0093,-0.019 0.01399,-0.047 0.014,-0.084 -6e-6,-0.6066 -0.196005,-1.1153 -0.588,-1.526 -0.392005,-0.42 -0.872671,-0.63 -1.442,-0.63 -0.588003,0 -1.073336,0.2054 -1.456,0.616 -0.382668,0.4014 -0.597335,0.9427 -0.644,1.624" style="font-size:14px;font-style:normal;text-align:center;text-anchor:middle;fill:#000000;font-family:FreeSans;-inkscape-font-specification:FreeSans" id="path8977"/>
      <path inkscape:connector-curvature="0" d="m 31.853756,1031.6824 0,1.456 -1.456,0 0,-1.456 1.456,0" style="font-size:14px;font-style:normal;text-align:center;text-anchor:middle;fill:#000000;font-family:FreeSans;-inkscape-font-specification:FreeSans" id="path8979"/>
      <path inkscape:connector-curvature="0" d="m 34.042569,1025.8024 1.078,0 0,1.036 c 0.317331,-0.4386 0.648664,-0.756 0.994,-0.952 0.354663,-0.196 0.774663,-0.294 1.26,-0.294 0.905328,0 1.563327,0.3734 1.974,1.12 0.345326,-0.4106 0.685993,-0.7 1.022,-0.868 0.335992,-0.168 0.746658,-0.252 1.232,-0.252 0.681324,0 1.20399,0.1774 1.568,0.532 0.373323,0.3454 0.559989,0.8494 0.56,1.512 l 0,5.502 -1.176,0 0,-5.054 c -1e-5,-0.4666 -0.121343,-0.826 -0.364,-1.078 -0.233343,-0.2613 -0.564676,-0.392 -0.994,-0.392 -0.476008,0 -0.882008,0.1867 -1.218,0.56 -0.336007,0.3734 -0.504007,0.826 -0.504,1.358 l 0,4.606 -1.176,0 0,-5.054 c -6e-6,-0.4666 -0.121339,-0.826 -0.364,-1.078 -0.233338,-0.2613 -0.564671,-0.392 -0.994,-0.392 -0.476004,0 -0.882003,0.1867 -1.218,0.56 -0.336003,0.3734 -0.504002,0.826 -0.504,1.358 l 0,4.606 -1.176,0 0,-7.336" style="font-size:14px;font-style:normal;text-align:center;text-anchor:middle;fill:#000000;font-family:FreeSans;-inkscape-font-specification:FreeSans" id="path8981"/>
      <path inkscape:connector-curvature="0" d="m 48.409631,1025.5924 c 1.054662,0 1.871328,0.35 2.45,1.05 0.587993,0.6907 0.881993,1.6707 0.882,2.94 -7e-6,1.204 -0.298673,2.1514 -0.896,2.842 -0.588005,0.6907 -1.395338,1.036 -2.422,1.036 -1.045336,0 -1.862002,-0.3453 -2.45,-1.036 -0.578667,-0.7 -0.868,-1.666 -0.868,-2.898 0,-1.232 0.293999,-2.1933 0.882,-2.884 0.587998,-0.7 1.395331,-1.05 2.422,-1.05 m 0.014,1.078 c -0.653336,0 -1.166669,0.2567 -1.54,0.77 -0.373335,0.504 -0.560002,1.1994 -0.56,2.086 -2e-6,0.8867 0.186665,1.5867 0.56,2.1 0.373331,0.504 0.886664,0.756 1.54,0.756 0.643996,0 1.152662,-0.252 1.526,-0.756 0.382661,-0.5133 0.573994,-1.1993 0.574,-2.058 -6e-6,-0.9053 -0.186672,-1.6146 -0.56,-2.128 -0.364005,-0.5133 -0.877338,-0.77 -1.54,-0.77" style="font-size:14px;font-style:normal;text-align:center;text-anchor:middle;fill:#000000;font-family:FreeSans;-inkscape-font-specification:FreeSans" id="path8983"/>
    </g>
    <g style="font-size:18px;font-style:italic;font-variant:normal;font-weight:normal;font-stretch:normal;text-align:start;line-height:125%;letter-spacing:0px;word-spacing:0px;writing-mode:lr-tb;text-anchor:start;fill:#000000;fill-opacity:1;fill-rule:evenodd;stroke:none;display:inline;font-family:Comic Sans MS;-inkscape-font-specification:Sans Italic" id="text7612" transform="matrix(2.5390225,0,0,2.5390225,-147.20039,-1437.9326)">
      <path inkscape:connector-curvature="0" d="m 161.63002,959.33044 0,0.952 -1.218,0 0,6.384 -1.162,0 0,-6.384 -0.98,0 0,-0.952 0.98,0 0,-1.246 c 0,-0.52265 0.14933,-0.92865 0.448,-1.218 0.308,-0.29865 0.73266,-0.44799 1.274,-0.448 0.21466,10e-6 0.434,0.0233 0.658,0.07 l 0,0.966 c -0.17734,-0.009 -0.31267,-0.014 -0.406,-0.014 -0.54134,1e-5 -0.812,0.24735 -0.812,0.742 l 0,1.148 1.218,0" style="font-size:14px;font-style:normal;text-align:center;text-anchor:middle;fill:#000000;font-family:FreeSans;-inkscape-font-specification:FreeSans" id="path8986"/>
      <path inkscape:connector-curvature="0" d="m 166.25811,960.35244 c -0.784,0.0187 -1.372,0.20068 -1.764,0.546 -0.392,0.34534 -0.588,0.99867 -0.588,1.96 l 0,3.808 -1.176,0 0,-7.336 1.078,0 0,1.33 c 0.336,-0.55066 0.658,-0.94266 0.966,-1.176 0.31733,-0.24266 0.66267,-0.36399 1.036,-0.364 0.10267,10e-6 0.252,0.014 0.448,0.042 l 0,1.19" style="font-size:14px;font-style:normal;text-align:center;text-anchor:middle;fill:#000000;font-family:FreeSans;-inkscape-font-specification:FreeSans" id="path8988"/>
      <path inkscape:connector-curvature="0" d="m 169.1139,965.21044 0,1.456 -1.456,0 0,-1.456 1.456,0" style="font-size:14px;font-style:normal;text-align:center;text-anchor:middle;fill:#000000;font-family:FreeSans;-inkscape-font-specification:FreeSans" id="path8990"/>
      <path inkscape:connector-curvature="0" d="m 171.07871,969.71844 0,-10.388 1.078,0 0,1.106 c 0.55066,-0.87732 1.32999,-1.31599 2.338,-1.316 0.97066,10e-6 1.73599,0.35934 2.296,1.078 0.56932,0.71868 0.85399,1.69401 0.854,2.926 -1e-5,1.16667 -0.28934,2.10467 -0.868,2.814 -0.56934,0.7 -1.32534,1.05 -2.268,1.05 -0.90534,0 -1.65667,-0.364 -2.254,-1.092 l 0,3.822 -1.176,0 m 3.22,-9.506 c -0.61601,10e-6 -1.11067,0.26134 -1.484,0.784 -0.37334,0.51334 -0.56,1.19934 -0.56,2.058 0,0.85867 0.18666,1.54934 0.56,2.072 0.37333,0.51334 0.86799,0.77 1.484,0.77 0.63466,0 1.14799,-0.25666 1.54,-0.77 0.39199,-0.52266 0.58799,-1.19933 0.588,-2.03 -1e-5,-0.87733 -0.19601,-1.57733 -0.588,-2.1 -0.38267,-0.52266 -0.89601,-0.78399 -1.54,-0.784" style="font-size:14px;font-style:normal;text-align:center;text-anchor:middle;fill:#000000;font-family:FreeSans;-inkscape-font-specification:FreeSans" id="path8992"/>
      <path inkscape:connector-curvature="0" d="m 181.92368,959.12044 c 1.05466,10e-6 1.87132,0.35001 2.45,1.05 0.58799,0.69068 0.88199,1.67067 0.882,2.94 -1e-5,1.20401 -0.29868,2.15134 -0.896,2.842 -0.58801,0.69067 -1.39534,1.036 -2.422,1.036 -1.04534,0 -1.86201,-0.34533 -2.45,-1.036 -0.57867,-0.7 -0.868,-1.66599 -0.868,-2.898 0,-1.23199 0.294,-2.19332 0.882,-2.884 0.58799,-0.69999 1.39533,-1.04999 2.422,-1.05 m 0.014,1.078 c -0.65334,10e-6 -1.16667,0.25668 -1.54,0.77 -0.37334,0.50401 -0.56,1.19934 -0.56,2.086 0,0.88667 0.18666,1.58667 0.56,2.1 0.37333,0.504 0.88666,0.756 1.54,0.756 0.64399,0 1.15266,-0.252 1.526,-0.756 0.38266,-0.51333 0.57399,-1.19933 0.574,-2.058 -1e-5,-0.90533 -0.18668,-1.61466 -0.56,-2.128 -0.36401,-0.51332 -0.87734,-0.76999 -1.54,-0.77" style="font-size:14px;font-style:normal;text-align:center;text-anchor:middle;fill:#000000;font-family:FreeSans;-inkscape-font-specification:FreeSans" id="path8994"/>
    </g>
    <path d="m 289.47233,1045.6919 c -14.19677,0 -26.36547,-1.7636 -38.62229,-5.6435 -12.34503,-3.8798 -21.25109,-8.7296 -28.39361,-15.4311 -7.05427,-6.7899 -10.31691,-13.3152 -10.31691,-21.0749 0,-7.84788 3.26262,-14.37317 10.31691,-21.16277 7.1425,-6.70175 16.04858,-11.55154 28.3054,-15.43142 12.34503,-3.87988 24.51371,-5.64348 38.71047,-5.64348 14.19677,0 26.36544,1.7636 38.62229,5.64348 12.34503,3.87988 21.25109,8.72967 28.39356,15.43142 7.05432,6.7896 10.31694,13.31489 10.31694,21.07467 0,7.8478 -3.26259,14.3731 -10.31694,21.163 -7.14247,6.7015 -16.04853,11.5513 -28.30538,15.4311 -12.34503,3.8799 -24.5137,5.6435 -38.71047,5.6435 l 0,0" id="path7610" inkscape:connector-curvature="0" style="fill:none;stroke:#000000;stroke-width:2.48858166;stroke-linejoin:round;stroke-opacity:1;visibility:visible"/>
    <path style="fill:none;stroke:#000000;stroke-width:2.48858166;stroke-linejoin:round;stroke-opacity:1;visibility:visible" inkscape:connector-curvature="0" id="path7618" d="m 289.47233,1214.4661 c -14.19677,0 -26.36547,-1.7636 -38.62229,-5.6434 -12.34503,-3.8799 -21.25109,-8.7297 -28.39361,-15.4315 -7.05427,-6.7896 -10.31691,-13.3148 -10.31691,-21.0746 0,-7.8479 3.26262,-14.3732 10.31691,-21.1628 7.1425,-6.7017 16.04858,-11.5515 28.3054,-15.4314 12.34503,-3.8799 24.51371,-5.6435 38.71047,-5.6435 14.19677,0 26.36544,1.7636 38.62229,5.6435 12.34503,3.8799 21.25109,8.7297 28.39356,15.4314 7.05432,6.7896 10.31694,13.3149 10.31694,21.0747 0,7.8479 -3.26259,14.3731 -10.31694,21.1627 -7.14247,6.7018 -16.04853,11.5516 -28.30538,15.4315 -12.34503,3.8798 -24.5137,5.6434 -38.71047,5.6434 l 0,0"/>
    <g style="font-size:18px;font-style:italic;font-variant:normal;font-weight:normal;font-stretch:normal;text-align:start;line-height:125%;letter-spacing:0px;word-spacing:0px;writing-mode:lr-tb;text-anchor:start;fill:#000000;fill-opacity:1;fill-rule:evenodd;stroke:none;display:inline;font-family:Comic Sans MS;-inkscape-font-specification:Sans Italic" id="text7620" transform="matrix(2.5390225,0,0,2.5390225,-147.20039,-1437.9326)">
      <path inkscape:connector-curvature="0" d="m 159.75697,1025.8024 0,0.952 -1.218,0 0,6.384 -1.162,0 0,-6.384 -0.98,0 0,-0.952 0.98,0 0,-1.246 c 0,-0.5226 0.14934,-0.9286 0.448,-1.218 0.308,-0.2986 0.73267,-0.448 1.274,-0.448 0.21467,0 0.434,0.023 0.658,0.07 l 0,0.966 c -0.17733,-0.01 -0.31267,-0.014 -0.406,-0.014 -0.54133,0 -0.812,0.2474 -0.812,0.742 l 0,1.148 1.218,0" style="font-size:14px;font-style:normal;text-align:center;text-anchor:middle;fill:#000000;font-family:FreeSans;-inkscape-font-specification:FreeSans" id="path8953"/>
      <path inkscape:connector-curvature="0" d="m 164.38507,1026.8244 c -0.78401,0.019 -1.37201,0.2007 -1.764,0.546 -0.392,0.3454 -0.588,0.9987 -0.588,1.96 l 0,3.808 -1.176,0 0,-7.336 1.078,0 0,1.33 c 0.336,-0.5506 0.65799,-0.9426 0.966,-1.176 0.31733,-0.2426 0.66266,-0.364 1.036,-0.364 0.10266,0 0.25199,0.014 0.448,0.042 l 0,1.19" style="font-size:14px;font-style:normal;text-align:center;text-anchor:middle;fill:#000000;font-family:FreeSans;-inkscape-font-specification:FreeSans" id="path8955"/>
      <path inkscape:connector-curvature="0" d="m 167.24085,1031.6824 0,1.456 -1.456,0 0,-1.456 1.456,0" style="font-size:14px;font-style:normal;text-align:center;text-anchor:middle;fill:#000000;font-family:FreeSans;-inkscape-font-specification:FreeSans" id="path8957"/>
      <path inkscape:connector-curvature="0" d="m 169.42966,1025.8024 1.078,0 0,1.036 c 0.31733,-0.4386 0.64867,-0.756 0.994,-0.952 0.35466,-0.196 0.77466,-0.294 1.26,-0.294 0.90533,0 1.56333,0.3734 1.974,1.12 0.34533,-0.4106 0.68599,-0.7 1.022,-0.868 0.33599,-0.168 0.74666,-0.252 1.232,-0.252 0.68133,0 1.20399,0.1774 1.568,0.532 0.37332,0.3454 0.55999,0.8494 0.56,1.512 l 0,5.502 -1.176,0 0,-5.054 c -1e-5,-0.4666 -0.12134,-0.826 -0.364,-1.078 -0.23334,-0.2613 -0.56467,-0.392 -0.994,-0.392 -0.47601,0 -0.88201,0.1867 -1.218,0.56 -0.33601,0.3734 -0.50401,0.826 -0.504,1.358 l 0,4.606 -1.176,0 0,-5.054 c 0,-0.4666 -0.12134,-0.826 -0.364,-1.078 -0.23334,-0.2613 -0.56467,-0.392 -0.994,-0.392 -0.476,0 -0.882,0.1867 -1.218,0.56 -0.336,0.3734 -0.504,0.826 -0.504,1.358 l 0,4.606 -1.176,0 0,-7.336" style="font-size:14px;font-style:normal;text-align:center;text-anchor:middle;fill:#000000;font-family:FreeSans;-inkscape-font-specification:FreeSans" id="path8959"/>
      <path inkscape:connector-curvature="0" d="m 183.79672,1025.5924 c 1.05467,0 1.87133,0.35 2.45,1.05 0.588,0.6907 0.882,1.6707 0.882,2.94 0,1.204 -0.29867,2.1514 -0.896,2.842 -0.588,0.6907 -1.39533,1.036 -2.422,1.036 -1.04533,0 -1.862,-0.3453 -2.45,-1.036 -0.57866,-0.7 -0.868,-1.666 -0.868,-2.898 0,-1.232 0.294,-2.1933 0.882,-2.884 0.588,-0.7 1.39533,-1.05 2.422,-1.05 m 0.014,1.078 c -0.65333,0 -1.16667,0.2567 -1.54,0.77 -0.37333,0.504 -0.56,1.1994 -0.56,2.086 0,0.8867 0.18667,1.5867 0.56,2.1 0.37333,0.504 0.88667,0.756 1.54,0.756 0.644,0 1.15267,-0.252 1.526,-0.756 0.38266,-0.5133 0.574,-1.1993 0.574,-2.058 0,-0.9053 -0.18667,-1.6146 -0.56,-2.128 -0.364,-0.5133 -0.87733,-0.77 -1.54,-0.77" style="font-size:14px;font-style:normal;text-align:center;text-anchor:middle;fill:#000000;font-family:FreeSans;-inkscape-font-specification:FreeSans" id="path8961"/>
    </g>
    <g id="g7817" transform="matrix(2.5390225,0,0,2.6140618,-569.39388,-1334.0558)" style="fill:#000000;stroke:none">
      <path sodipodi:nodetypes="cccc" style="fill:#000000;fill-rule:evenodd;stroke:none;visibility:visible" inkscape:connector-curvature="0" id="path7819" d="m 271.7819,869.01785 -3,9 -3,-9 z"/>
      <path inkscape:connector-curvature="0" id="path7821" d="m 268.2819,845.79666 1,0 0,25.89433 -1,0 z" style="fill:#000000;fill-opacity:1;stroke:none"/>
    </g>
    <g transform="matrix(2.5390225,0,0,2.5822285,-745.81674,-1138.4082)" id="g7823" style="fill:#000000;stroke:none">
      <path d="m 271.7819,869.01785 -3,9 -3,-9 z" id="path7825" inkscape:connector-curvature="0" style="fill:#000000;fill-rule:evenodd;stroke:none;visibility:visible" sodipodi:nodetypes="cccc"/>
      <path style="fill:#000000;fill-opacity:1;stroke:none" d="m 268.2819,845.79666 1,0 0,25.89433 -1,0 z" id="path7827" inkscape:connector-curvature="0"/>
    </g>
    <g id="g7853" transform="matrix(2.5390225,0,0,2.5822285,-392.97099,-1138.4082)" style="fill:#000000;stroke:none">
      <path sodipodi:nodetypes="cccc" style="fill:#000000;fill-rule:evenodd;stroke:none;visibility:visible" inkscape:connector-curvature="0" id="path7855" d="m 271.7819,869.01785 -3,9 -3,-9 z"/>
      <path inkscape:connector-curvature="0" id="path7857" d="m 268.2819,845.79666 1,0 0,25.89433 -1,0 z" style="fill:#000000;fill-opacity:1;stroke:none"/>
    </g>
    <g id="g7859" transform="matrix(2.5390225,0,0,2.5822285,-570.26892,-1138.4082)" style="fill:#000000;stroke:none">
      <path sodipodi:nodetypes="cccc" style="fill:#000000;fill-rule:evenodd;stroke:none;visibility:visible" inkscape:connector-curvature="0" id="path7861" d="m 271.7819,869.01785 -3,9 -3,-9 z"/>
      <path inkscape:connector-curvature="0" id="path7863" d="m 268.2819,845.79666 1,0 0,25.89433 -1,0 z" style="fill:#000000;fill-opacity:1;stroke:none"/>
    </g>
    <g id="g7901" transform="matrix(1.9648401,-1.6081165,1.6081165,1.9648401,-1907.5194,-409.27434)" style="fill:#000000;stroke:none">
      <path sodipodi:nodetypes="cccc" style="fill:#000000;fill-rule:evenodd;stroke:none;visibility:visible" inkscape:connector-curvature="0" id="path7895" d="m 312.11447,946.77634 -3,9 -3,-9 z"/>
      <path inkscape:connector-curvature="0" id="path7897" d="m 308.61447,904.51125 1,0 0,44.93823 -1,0 z" style="fill:#000000;fill-opacity:1;stroke:none"/>
    </g>
    <g transform="matrix(-1.9648401,-1.6081165,-1.6081165,1.9648401,2133.6182,-409.27434)" id="g7905" style="fill:#000000;stroke:none">
      <path d="m 312.11447,946.77634 -3,9 -3,-9 z" id="path7907" inkscape:connector-curvature="0" style="fill:#000000;fill-rule:evenodd;stroke:none;visibility:visible" sodipodi:nodetypes="cccc"/>
      <path style="fill:#000000;fill-opacity:1;stroke:none" d="m 308.61447,904.51125 1,0 0,44.93823 -1,0 z" id="path7909" inkscape:connector-curvature="0"/>
    </g>
    <g style="font-size:18px;font-style:italic;font-variant:normal;font-weight:normal;font-stretch:normal;text-align:start;line-height:125%;letter-spacing:0px;word-spacing:0px;writing-mode:lr-tb;text-anchor:start;fill:#000000;fill-opacity:1;stroke:none;font-family:Comic Sans MS;-inkscape-font-specification:Sans Italic" id="text7941" transform="matrix(2.5390225,0,0,2.5390225,-147.20039,-1437.9326)">
      <path inkscape:connector-curvature="0" d="m 130.35788,911.49376 0.77,0 0,0.74 c 0.22667,-0.31332 0.46333,-0.53999 0.71,-0.68 0.25333,-0.13999 0.55333,-0.20999 0.9,-0.21 0.64667,10e-6 1.11667,0.26668 1.41,0.8 0.24666,-0.29332 0.49,-0.49999 0.73,-0.62 0.24,-0.11999 0.53333,-0.17999 0.88,-0.18 0.48666,10e-6 0.86,0.12668 1.12,0.38 0.26666,0.24668 0.4,0.60668 0.4,1.08 l 0,3.93 -0.84,0 0,-3.61 c 0,-0.33332 -0.0867,-0.58999 -0.26,-0.77 -0.16667,-0.18666 -0.40334,-0.27999 -0.71,-0.28 -0.34,10e-6 -0.63,0.13334 -0.87,0.4 -0.24,0.26668 -0.36,0.59001 -0.36,0.97 l 0,3.29 -0.84,0 0,-3.61 c 0,-0.33332 -0.0867,-0.58999 -0.26,-0.77 -0.16667,-0.18666 -0.40333,-0.27999 -0.71,-0.28 -0.34,10e-6 -0.63,0.13334 -0.87,0.4 -0.24,0.26668 -0.36,0.59001 -0.36,0.97 l 0,3.29 -0.84,0 0,-5.24" style="font-size:10px;font-style:normal;fill:#000000;font-family:FreeSans;-inkscape-font-specification:FreeSans" id="path8923"/>
      <path inkscape:connector-curvature="0" d="m 139.02241,915.17376 c 0.04,0.31334 0.14667,0.56334 0.32,0.75 0.18,0.18001 0.5,0.27001 0.96,0.27 0.36667,10e-6 0.66,-0.0733 0.88,-0.22 0.22667,-0.15333 0.34,-0.35333 0.34,-0.6 0,-0.19333 -0.0633,-0.34666 -0.19,-0.46 -0.12667,-0.11333 -0.33333,-0.20333 -0.62,-0.27 l -0.78,-0.19 c -0.62,-0.14666 -1.05333,-0.32999 -1.3,-0.55 -0.24,-0.22666 -0.36,-0.54666 -0.36,-0.96 0,-0.48666 0.18334,-0.87332 0.55,-1.16 0.36667,-0.29332 0.85334,-0.43999 1.46,-0.44 0.60667,10e-6 1.07333,0.14001 1.4,0.42 0.32667,0.28001 0.49333,0.67668 0.5,1.19 l -0.88,0 c -0.02,-0.55999 -0.37,-0.83999 -1.05,-0.84 -0.34,1e-5 -0.61,0.0733 -0.81,0.22 -0.2,0.14001 -0.3,0.33001 -0.3,0.57 0,0.18667 0.0767,0.34001 0.23,0.46 0.15334,0.11334 0.4,0.21001 0.74,0.29 l 0.8,0.19 c 0.52,0.12667 0.89667,0.30667 1.13,0.54 0.23333,0.22667 0.35,0.53334 0.35,0.92 0,0.50667 -0.19667,0.91001 -0.59,1.21 -0.38667,0.3 -0.91,0.45 -1.57,0.45 -1.35333,0 -2.05,-0.59666 -2.09,-1.79 l 0.88,0" style="font-size:10px;font-style:normal;fill:#000000;font-family:FreeSans;-inkscape-font-specification:FreeSans" id="path8925"/>
      <path inkscape:connector-curvature="0" d="m 145.15476,916.96376 c -0.61334,0 -1.12667,-0.25 -1.54,-0.75 -0.41334,-0.50666 -0.62,-1.17666 -0.62,-2.01 0,-0.85333 0.20333,-1.54332 0.61,-2.07 0.41333,-0.52666 0.95333,-0.78999 1.62,-0.79 0.65333,10e-6 1.18666,0.30334 1.6,0.91 l 0,-0.76 0.77,0 0,4.38 c -1e-5,0.50001 -0.03,0.91667 -0.09,1.25 -0.06,0.34 -0.17001,0.65334 -0.33,0.94 -0.16001,0.28667 -0.40001,0.5 -0.72,0.64 -0.31334,0.14 -0.71334,0.21 -1.2,0.21 -0.61334,0 -1.10334,-0.14 -1.47,-0.42 -0.36667,-0.28 -0.57334,-0.66666 -0.62,-1.16 l 0.85,0 c 0.0933,0.58667 0.51666,0.88 1.27,0.88 0.55999,0 0.94333,-0.16 1.15,-0.48 0.20666,-0.31333 0.30999,-0.79333 0.31,-1.44 l 0,-0.27 c -0.23334,0.33334 -0.47667,0.57334 -0.73,0.72 -0.24667,0.14667 -0.53334,0.22 -0.86,0.22 m 0.16,-4.85 c -0.44667,1e-5 -0.8,0.18334 -1.06,0.55 -0.26,0.36668 -0.39,0.86334 -0.39,1.49 0,0.63334 0.13,1.13334 0.39,1.5 0.26,0.36001 0.61666,0.54001 1.07,0.54 0.43999,10e-6 0.78666,-0.17666 1.04,-0.53 0.25333,-0.35999 0.37999,-0.85333 0.38,-1.48 -1e-5,-0.65333 -0.12667,-1.15999 -0.38,-1.52 -0.24667,-0.36666 -0.59667,-0.54999 -1.05,-0.55" style="font-size:10px;font-style:normal;fill:#000000;font-family:FreeSans;-inkscape-font-specification:FreeSans" id="path8927"/>
      <path inkscape:connector-curvature="0" d="m 149.77116,911.55376 0,5.24 -0.83,0 0,-5.24 0.83,0 m 0,-2.11 0,1.05 -0.84,0 0,-1.05 0.84,0" style="font-size:10px;font-style:normal;fill:#000000;font-family:FreeSans;-inkscape-font-specification:FreeSans" id="path8929"/>
      <path inkscape:connector-curvature="0" d="m 151.19773,911.49376 0.77,0 0,0.88 c 0.23333,-0.36666 0.48333,-0.62999 0.75,-0.79 0.27333,-0.15999 0.60333,-0.23999 0.99,-0.24 0.50666,10e-6 0.90999,0.13001 1.21,0.39 0.29999,0.26001 0.44999,0.60668 0.45,1.04 l 0,3.96 -0.83,0 0,-3.63 c -1e-5,-0.31332 -0.0967,-0.56332 -0.29,-0.75 -0.19334,-0.18666 -0.45667,-0.27999 -0.79,-0.28 -0.42667,10e-6 -0.77001,0.16334 -1.03,0.49 -0.26001,0.32001 -0.39001,0.74667 -0.39,1.28 l 0,2.89 -0.84,0 0,-5.24" style="font-size:10px;font-style:normal;fill:#000000;font-family:FreeSans;-inkscape-font-specification:FreeSans" id="path8931"/>
      <path inkscape:connector-curvature="0" d="m 157.56413,911.55376 0,5.24 -0.83,0 0,-5.24 0.83,0 m 0,-2.11 0,1.05 -0.84,0 0,-1.05 0.84,0" style="font-size:10px;font-style:normal;fill:#000000;font-family:FreeSans;-inkscape-font-specification:FreeSans" id="path8933"/>
      <path inkscape:connector-curvature="0" d="m 160.8307,911.49376 0,0.68 -0.86,0 0,3.59 c -1e-5,0.18667 0.03,0.31334 0.09,0.38 0.0667,0.06 0.18999,0.09 0.37,0.09 0.16666,1e-5 0.29999,-0.0133 0.4,-0.04 l 0,0.7 c -0.26001,0.0467 -0.48667,0.07 -0.68,0.07 -0.32667,0 -0.57667,-0.0733 -0.75,-0.22 -0.17334,-0.14 -0.26001,-0.34333 -0.26,-0.61 l 0,-3.96 -0.71,0 0,-0.68 0.71,0 0,-1.44 0.83,0 0,1.44 0.86,0" style="font-size:10px;font-style:normal;fill:#000000;font-family:FreeSans;-inkscape-font-specification:FreeSans" id="path8935"/>
    </g>
    <path d="m 113.04942,708.3198 c -14.19677,0 -26.365442,-1.76358 -38.622294,-5.64343 -12.345032,-3.87988 -21.251085,-8.7297 -28.393584,-15.43129 -7.054293,-6.78978 -10.316911,-13.31499 -10.316911,-21.07473 0,-7.84791 3.262618,-14.37315 10.316911,-21.1629 7.142499,-6.7016 16.048552,-11.55144 28.305404,-15.43129 12.345032,-3.87988 24.513704,-5.64344 38.710474,-5.64344 14.19676,0 26.36543,1.76356 38.62229,5.64344 12.34503,3.87985 21.25108,8.72969 28.39355,15.43129 7.05432,6.78975 10.31694,13.31499 10.31694,21.07472 0,7.84792 -3.26262,14.37313 -10.31694,21.16291 -7.14247,6.70159 -16.04852,11.55141 -28.30537,15.43129 -12.34504,3.87985 -24.51371,5.64343 -38.71047,5.64343 l 0,0" id="path7968" inkscape:connector-curvature="0" style="fill:none;stroke:#000000;stroke-width:2.48858166;stroke-linejoin:round;stroke-opacity:1;visibility:visible"/>
    <g style="font-size:18px;font-style:italic;font-variant:normal;font-weight:normal;font-stretch:normal;text-align:start;line-height:125%;letter-spacing:0px;word-spacing:0px;writing-mode:lr-tb;text-anchor:start;fill:#000000;fill-opacity:1;fill-rule:evenodd;stroke:none;display:inline;font-family:Comic Sans MS;-inkscape-font-specification:Sans Italic" id="text7970" transform="matrix(2.5390225,0,0,2.5390225,-147.20039,-1437.9326)">
      <path inkscape:connector-curvature="0" d="m 91.05172,826.45556 0,0.952 -1.218,0 0,6.384 -1.162,0 0,-6.384 -0.98,0 0,-0.952 0.98,0 0,-1.246 c -10e-7,-0.52265 0.149332,-0.92865 0.448,-1.218 0.307998,-0.29865 0.732664,-0.44798 1.274,-0.448 0.214664,2e-5 0.433997,0.0234 0.658,0.07 l 0,0.966 c -0.177337,-0.009 -0.31267,-0.014 -0.406,-0.014 -0.541336,10e-6 -0.812002,0.24735 -0.812,0.742 l 0,1.148 1.218,0" style="font-size:14px;font-style:normal;text-align:center;text-anchor:middle;fill:#000000;font-family:FreeSans;-inkscape-font-specification:FreeSans" id="path8854"/>
      <path inkscape:connector-curvature="0" d="m 94.857095,826.24556 c 1.054662,1e-5 1.871328,0.35001 2.45,1.05 0.587993,0.69068 0.881993,1.67068 0.882,2.94 -7e-6,1.20401 -0.298673,2.15134 -0.896,2.842 -0.588006,0.69067 -1.395338,1.036 -2.422,1.036 -1.045336,0 -1.862002,-0.34533 -2.45,-1.036 -0.578667,-0.69999 -0.868,-1.66599 -0.868,-2.898 0,-1.23199 0.293999,-2.19332 0.882,-2.884 0.587998,-0.69999 1.395331,-1.04999 2.422,-1.05 m 0.014,1.078 c -0.653336,10e-6 -1.166669,0.25668 -1.54,0.77 -0.373335,0.50401 -0.560002,1.19934 -0.56,2.086 -2e-6,0.88667 0.186665,1.58667 0.56,2.1 0.373331,0.50401 0.886664,0.75601 1.54,0.756 0.643996,10e-6 1.152662,-0.25199 1.526,-0.756 0.382661,-0.51333 0.573994,-1.19933 0.574,-2.058 -6e-6,-0.90532 -0.186672,-1.61466 -0.56,-2.128 -0.364005,-0.51332 -0.877338,-0.76999 -1.54,-0.77" style="font-size:14px;font-style:normal;text-align:center;text-anchor:middle;fill:#000000;font-family:FreeSans;-inkscape-font-specification:FreeSans" id="path8856"/>
      <path inkscape:connector-curvature="0" d="m 102.65006,826.24556 c 1.05467,1e-5 1.87133,0.35001 2.45,1.05 0.588,0.69068 0.882,1.67068 0.882,2.94 0,1.20401 -0.29867,2.15134 -0.896,2.842 -0.588,0.69067 -1.39533,1.036 -2.422,1.036 -1.04533,0 -1.862,-0.34533 -2.45,-1.036 -0.578664,-0.69999 -0.867997,-1.66599 -0.867996,-2.898 -10e-7,-1.23199 0.293999,-2.19332 0.881996,-2.884 0.588,-0.69999 1.39533,-1.04999 2.422,-1.05 m 0.014,1.078 c -0.65333,10e-6 -1.16667,0.25668 -1.54,0.77 -0.37333,0.50401 -0.56,1.19934 -0.56,2.086 0,0.88667 0.18667,1.58667 0.56,2.1 0.37333,0.50401 0.88667,0.75601 1.54,0.756 0.644,10e-6 1.15267,-0.25199 1.526,-0.756 0.38266,-0.51333 0.574,-1.19933 0.574,-2.058 0,-0.90532 -0.18667,-1.61466 -0.56,-2.128 -0.364,-0.51332 -0.87733,-0.76999 -1.54,-0.77" style="font-size:14px;font-style:normal;text-align:center;text-anchor:middle;fill:#000000;font-family:FreeSans;-inkscape-font-specification:FreeSans" id="path8858"/>
      <path inkscape:connector-curvature="0" d="m 109.30903,832.33556 0,1.456 -1.456,0 0,-1.456 1.456,0" style="font-size:14px;font-style:normal;text-align:center;text-anchor:middle;fill:#000000;font-family:FreeSans;-inkscape-font-specification:FreeSans" id="path8860"/>
      <path inkscape:connector-curvature="0" d="m 117.11185,828.91956 -1.176,0 c -0.0747,-0.51332 -0.26134,-0.90532 -0.56,-1.176 -0.29868,-0.27999 -0.69068,-0.41999 -1.176,-0.42 -0.63467,10e-6 -1.13401,0.26134 -1.498,0.784 -0.35467,0.51334 -0.53201,1.22734 -0.532,2.142 -1e-5,0.86801 0.18199,1.54934 0.546,2.044 0.36399,0.49467 0.86799,0.74201 1.512,0.742 0.99866,10e-6 1.59599,-0.58799 1.792,-1.764 l 1.176,0 c -0.0747,0.89601 -0.37334,1.59601 -0.896,2.1 -0.52268,0.49467 -1.22268,0.742 -2.1,0.742 -0.99867,0 -1.79201,-0.34533 -2.38,-1.036 -0.57867,-0.69999 -0.86801,-1.64266 -0.868,-2.828 -10e-6,-1.21332 0.29399,-2.18399 0.882,-2.912 0.59733,-0.72799 1.39066,-1.09199 2.38,-1.092 0.84932,1e-5 1.52599,0.22868 2.03,0.686 0.51332,0.45734 0.80266,1.12001 0.868,1.988" style="font-size:14px;font-style:normal;text-align:center;text-anchor:middle;fill:#000000;font-family:FreeSans;-inkscape-font-specification:FreeSans" id="path8862"/>
    </g>
    <path sodipodi:nodetypes="cccc" style="fill:#000000;fill-rule:evenodd;stroke:none;visibility:visible" inkscape:connector-curvature="0" id="path7984" d="m -55.756403,938.28592 -7.617067,22.85121 -7.617068,-22.85121 z"/>
    <path style="fill:none;stroke:#000000;stroke-width:2.53902245px;stroke-linecap:butt;stroke-linejoin:miter;stroke-opacity:1" d="m -126.72678,977.77636 c -52.59329,-62.20275 65.429265,-116.24062 63.179691,-38.18002" id="path7988" inkscape:connector-curvature="0" sodipodi:nodetypes="cc"/>
    <g id="g3261" transform="translate(-289.17347,97.659203)">
      <path d="m 217.99824,778.83747 1.90106,0 0,1.82699 c 0.55961,-0.77358 1.14392,-1.33319 1.75292,-1.67885 0.62545,-0.34564 1.36612,-0.51846 2.22201,-0.51847 1.59655,10e-6 2.75694,0.65838 3.48116,1.97512 0.60898,-0.7242 1.20975,-1.23444 1.8023,-1.53072 0.59252,-0.29626 1.31674,-0.44439 2.17264,-0.4444 1.20152,10e-6 2.12324,0.31274 2.76517,0.93818 0.65836,0.60901 0.98754,1.49781 0.98756,2.66642 l 0,9.7028 -2.07388,0 0,-8.91275 c -10e-6,-0.82296 -0.21399,-1.45665 -0.64191,-1.90106 -0.4115,-0.46085 -0.99581,-0.69128 -1.75293,-0.69129 -0.83944,10e-6 -1.55542,0.3292 -2.14794,0.98756 -0.59255,0.65838 -0.88882,1.45666 -0.88881,2.39484 l 0,8.1227 -2.07388,0 0,-8.91275 c -1e-5,-0.82296 -0.21398,-1.45665 -0.64191,-1.90106 -0.4115,-0.46085 -0.9958,-0.69128 -1.75293,-0.69129 -0.83943,10e-6 -1.55541,0.3292 -2.14795,0.98756 -0.59254,0.65838 -0.88881,1.45666 -0.8888,2.39484 l 0,8.1227 -2.07388,0 0,-12.93707" style="font-size:24.68905449px;font-style:normal;font-variant:normal;font-weight:normal;font-stretch:normal;text-align:start;line-height:125%;letter-spacing:0px;word-spacing:0px;writing-mode:lr-tb;text-anchor:start;fill:#000000;fill-opacity:1;stroke:none;font-family:FreeSans;-inkscape-font-specification:FreeSans" id="path3123" inkscape:connector-curvature="0"/>
      <path d="m 239.39015,787.92304 c 0.0987,0.7736 0.3621,1.39082 0.79005,1.85168 0.4444,0.44441 1.23444,0.66661 2.37015,0.66661 0.90525,0 1.62947,-0.18105 2.17263,-0.54316 0.55961,-0.37857 0.83942,-0.87235 0.83943,-1.48135 -1e-5,-0.47731 -0.15637,-0.85588 -0.46909,-1.13569 -0.31274,-0.27981 -0.82298,-0.50201 -1.53072,-0.66661 l -1.92575,-0.46909 c -1.53072,-0.3621 -2.60058,-0.81473 -3.20958,-1.3579 -0.59253,-0.55961 -0.8888,-1.34966 -0.8888,-2.37015 0,-1.20152 0.45263,-2.15616 1.3579,-2.86393 0.90526,-0.7242 2.10679,-1.0863 3.6046,-1.08631 1.49779,10e-6 2.64995,0.34566 3.45647,1.03694 0.80649,0.6913 1.21798,1.67063 1.23445,2.93799 l -2.17264,0 c -0.0494,-1.38257 -0.9135,-2.07387 -2.59235,-2.07388 -0.83943,10e-6 -1.50604,0.18107 -1.99981,0.54316 -0.49379,0.34566 -0.74068,0.81475 -0.74067,1.40728 -1e-5,0.46087 0.18927,0.83943 0.56784,1.13569 0.37857,0.27982 0.98756,0.51848 1.82699,0.71599 l 1.97513,0.46909 c 1.28382,0.31273 2.21377,0.75714 2.78986,1.33321 0.57607,0.55962 0.86411,1.31675 0.86412,2.27139 -1e-5,1.25092 -0.48556,2.24671 -1.45666,2.98738 -0.95465,0.74067 -2.24671,1.111 -3.87618,1.111 -3.34125,0 -5.06125,-1.47311 -5.16001,-4.41934 l 2.17264,0" style="font-size:24.68905449px;font-style:normal;font-variant:normal;font-weight:normal;font-stretch:normal;text-align:start;line-height:125%;letter-spacing:0px;word-spacing:0px;writing-mode:lr-tb;text-anchor:start;fill:#000000;fill-opacity:1;stroke:none;font-family:FreeSans;-inkscape-font-specification:FreeSans" id="path3125" inkscape:connector-curvature="0"/>
      <path d="m 254.53032,792.34238 c -1.51426,0 -2.78163,-0.61722 -3.80211,-1.85167 -1.02048,-1.25091 -1.53072,-2.90508 -1.53072,-4.9625 0,-2.1068 0.50201,-3.81034 1.50603,-5.11064 1.02048,-1.30028 2.35369,-1.95042 3.99963,-1.95043 1.61301,10e-6 2.92976,0.74891 3.95025,2.2467 l 0,-1.87637 1.90105,0 0,10.81381 c -10e-6,1.23445 -0.0741,2.26316 -0.2222,3.08613 -0.14814,0.83943 -0.41972,1.61301 -0.81474,2.32077 -0.39503,0.70775 -0.98757,1.23445 -1.77761,1.5801 -0.7736,0.34564 -1.76116,0.51846 -2.96268,0.51847 -1.51427,-10e-6 -2.72403,-0.34565 -3.6293,-1.03694 -0.90526,-0.6913 -1.4155,-1.64594 -1.53072,-2.86393 l 2.09857,0 c 0.23043,1.44842 1.2756,2.17263 3.13551,2.17264 1.38258,-1e-5 2.32899,-0.39503 2.83924,-1.18508 0.51023,-0.77359 0.76535,-1.95866 0.76536,-3.55522 l 0,-0.66661 c -0.57608,0.82297 -1.17685,1.41551 -1.8023,1.77762 -0.609,0.3621 -1.31675,0.54315 -2.12326,0.54315 m 0.39503,-11.97419 c -1.10278,10e-6 -1.97513,0.45265 -2.61704,1.3579 -0.64192,0.90528 -0.96288,2.1315 -0.96287,3.67867 -1e-5,1.56364 0.32095,2.7981 0.96287,3.70336 0.64191,0.88881 1.52249,1.33321 2.64173,1.33321 1.08631,0 1.9422,-0.43617 2.56766,-1.30852 0.62545,-0.88881 0.93817,-2.1068 0.93818,-3.65398 -10e-6,-1.61301 -0.31273,-2.86392 -0.93818,-3.75274 -0.609,-0.90525 -1.47312,-1.35789 -2.59235,-1.3579" style="font-size:24.68905449px;font-style:normal;font-variant:normal;font-weight:normal;font-stretch:normal;text-align:start;line-height:125%;letter-spacing:0px;word-spacing:0px;writing-mode:lr-tb;text-anchor:start;fill:#000000;fill-opacity:1;stroke:none;font-family:FreeSans;-inkscape-font-specification:FreeSans" id="path3127" inkscape:connector-curvature="0"/>
      <path d="m 263.95267,778.83747 1.90105,0 0,1.82699 c 0.55962,-0.77358 1.14393,-1.33319 1.75293,-1.67885 0.62545,-0.34564 1.36612,-0.51846 2.22201,-0.51847 1.59655,10e-6 2.75694,0.65838 3.48116,1.97512 0.60898,-0.7242 1.20975,-1.23444 1.8023,-1.53072 0.59252,-0.29626 1.31674,-0.44439 2.17264,-0.4444 1.20151,10e-6 2.12324,0.31274 2.76517,0.93818 0.65836,0.60901 0.98754,1.49781 0.98756,2.66642 l 0,9.7028 -2.07388,0 0,-8.91275 c -1e-5,-0.82296 -0.21399,-1.45665 -0.64191,-1.90106 -0.4115,-0.46085 -0.99581,-0.69128 -1.75293,-0.69129 -0.83944,10e-6 -1.55542,0.3292 -2.14794,0.98756 -0.59255,0.65838 -0.88882,1.45666 -0.88881,2.39484 l 0,8.1227 -2.07388,0 0,-8.91275 c -1e-5,-0.82296 -0.21398,-1.45665 -0.64192,-1.90106 -0.41149,-0.46085 -0.99579,-0.69128 -1.75292,-0.69129 -0.83943,10e-6 -1.55541,0.3292 -2.14795,0.98756 -0.59254,0.65838 -0.88881,1.45666 -0.8888,2.39484 l 0,8.1227 -2.07388,0 0,-12.93707" style="font-size:24.68905449px;font-style:normal;font-variant:normal;font-weight:normal;font-stretch:normal;text-align:start;line-height:125%;letter-spacing:0px;word-spacing:0px;writing-mode:lr-tb;text-anchor:start;fill:#000000;fill-opacity:1;stroke:none;font-family:FreeSans;-inkscape-font-specification:FreeSans" id="path3129" inkscape:connector-curvature="0"/>
      <path d="m 295.2391,785.9973 -9.52997,0 c 0.0164,1.18508 0.24688,2.1068 0.69129,2.76517 0.70775,1.11924 1.74469,1.67886 3.11082,1.67886 1.67885,0 2.80631,-0.86412 3.3824,-2.59235 l 2.07388,0 c -0.26336,1.4155 -0.88059,2.51828 -1.85168,3.30833 -0.97111,0.79005 -2.19733,1.18507 -3.67867,1.18507 -1.81053,0 -3.2425,-0.60899 -4.29589,-1.82699 -1.0534,-1.23445 -1.5801,-2.9133 -1.5801,-5.03656 0,-2.12325 0.53493,-3.81857 1.60479,-5.08595 1.08631,-1.28382 2.5265,-1.92573 4.32058,-1.92574 1.21799,10e-6 2.28784,0.30451 3.20958,0.91349 0.93817,0.60901 1.613,1.44021 2.0245,2.4936 0.34564,0.90527 0.51846,2.27963 0.51847,4.12307 m -9.4806,-1.67886 7.25859,0 c 0.0164,-0.0329 0.0247,-0.0823 0.0247,-0.14813 -2e-5,-1.06985 -0.34566,-1.96689 -1.03695,-2.69111 -0.6913,-0.74066 -1.53895,-1.111 -2.54297,-1.11101 -1.03694,10e-6 -1.89283,0.36212 -2.56766,1.08632 -0.67484,0.70776 -1.0534,1.66241 -1.1357,2.86393" style="font-size:24.68905449px;font-style:normal;font-variant:normal;font-weight:normal;font-stretch:normal;text-align:start;line-height:125%;letter-spacing:0px;word-spacing:0px;writing-mode:lr-tb;text-anchor:start;fill:#000000;fill-opacity:1;stroke:none;font-family:FreeSans;-inkscape-font-specification:FreeSans" id="path3131" inkscape:connector-curvature="0"/>
      <path d="m 304.00063,780.63977 c -1.38259,0.0329 -2.41953,0.35389 -3.11082,0.96288 -0.69129,0.609 -1.03694,1.76116 -1.03694,3.45646 l 0,6.71543 -2.07388,0 0,-12.93707 1.90106,0 0,2.34546 c 0.59253,-0.97109 1.16038,-1.66238 1.70354,-2.07388 0.55962,-0.42793 1.16861,-0.6419 1.82699,-0.64191 0.18105,10e-6 0.4444,0.0247 0.79005,0.0741 l 0,2.09857" style="font-size:24.68905449px;font-style:normal;font-variant:normal;font-weight:normal;font-stretch:normal;text-align:start;line-height:125%;letter-spacing:0px;word-spacing:0px;writing-mode:lr-tb;text-anchor:start;fill:#000000;fill-opacity:1;stroke:none;font-family:FreeSans;-inkscape-font-specification:FreeSans" id="path3133" inkscape:connector-curvature="0"/>
      <path d="m 309.88782,792.34238 c -1.51427,0 -2.78164,-0.61722 -3.80212,-1.85167 -1.02048,-1.25091 -1.53072,-2.90508 -1.53072,-4.9625 0,-2.1068 0.50201,-3.81034 1.50603,-5.11064 1.02048,-1.30028 2.35369,-1.95042 3.99963,-1.95043 1.61301,10e-6 2.92976,0.74891 3.95025,2.2467 l 0,-1.87637 1.90105,0 0,10.81381 c -1e-5,1.23445 -0.0741,2.26316 -0.2222,3.08613 -0.14814,0.83943 -0.41972,1.61301 -0.81474,2.32077 -0.39503,0.70775 -0.98757,1.23445 -1.77761,1.5801 -0.7736,0.34564 -1.76116,0.51846 -2.96268,0.51847 -1.51427,-10e-6 -2.72403,-0.34565 -3.6293,-1.03694 -0.90526,-0.6913 -1.4155,-1.64594 -1.53072,-2.86393 l 2.09857,0 c 0.23043,1.44842 1.2756,2.17263 3.13551,2.17264 1.38258,-1e-5 2.329,-0.39503 2.83924,-1.18508 0.51023,-0.77359 0.76535,-1.95866 0.76536,-3.55522 l 0,-0.66661 c -0.57608,0.82297 -1.17685,1.41551 -1.8023,1.77762 -0.609,0.3621 -1.31675,0.54315 -2.12325,0.54315 m 0.39502,-11.97419 c -1.10278,10e-6 -1.97513,0.45265 -2.61704,1.3579 -0.64192,0.90528 -0.96288,2.1315 -0.96287,3.67867 -10e-6,1.56364 0.32095,2.7981 0.96287,3.70336 0.64191,0.88881 1.52249,1.33321 2.64173,1.33321 1.08631,0 1.9422,-0.43617 2.56766,-1.30852 0.62545,-0.88881 0.93817,-2.1068 0.93818,-3.65398 -1e-5,-1.61301 -0.31273,-2.86392 -0.93818,-3.75274 -0.609,-0.90525 -1.47312,-1.35789 -2.59235,-1.3579" style="font-size:24.68905449px;font-style:normal;font-variant:normal;font-weight:normal;font-stretch:normal;text-align:start;line-height:125%;letter-spacing:0px;word-spacing:0px;writing-mode:lr-tb;text-anchor:start;fill:#000000;fill-opacity:1;stroke:none;font-family:FreeSans;-inkscape-font-specification:FreeSans" id="path3135" inkscape:connector-curvature="0"/>
      <path d="m 330.24741,785.9973 -9.52998,0 c 0.0165,1.18508 0.24689,2.1068 0.6913,2.76517 0.70775,1.11924 1.74469,1.67886 3.11082,1.67886 1.67885,0 2.80631,-0.86412 3.3824,-2.59235 l 2.07388,0 c -0.26336,1.4155 -0.88059,2.51828 -1.85168,3.30833 -0.97111,0.79005 -2.19733,1.18507 -3.67867,1.18507 -1.81053,0 -3.2425,-0.60899 -4.29589,-1.82699 -1.05341,-1.23445 -1.5801,-2.9133 -1.5801,-5.03656 0,-2.12325 0.53492,-3.81857 1.60479,-5.08595 1.08631,-1.28382 2.5265,-1.92573 4.32058,-1.92574 1.21798,10e-6 2.28784,0.30451 3.20958,0.91349 0.93817,0.60901 1.613,1.44021 2.0245,2.4936 0.34563,0.90527 0.51846,2.27963 0.51847,4.12307 m -9.4806,-1.67886 7.25858,0 c 0.0164,-0.0329 0.0247,-0.0823 0.0247,-0.14813 -1e-5,-1.06985 -0.34565,-1.96689 -1.03694,-2.69111 -0.6913,-0.74066 -1.53896,-1.111 -2.54297,-1.11101 -1.03695,10e-6 -1.89283,0.36212 -2.56766,1.08632 -0.67484,0.70776 -1.0534,1.66241 -1.1357,2.86393" style="font-size:24.68905449px;font-style:normal;font-variant:normal;font-weight:normal;font-stretch:normal;text-align:start;line-height:125%;letter-spacing:0px;word-spacing:0px;writing-mode:lr-tb;text-anchor:start;fill:#000000;fill-opacity:1;stroke:none;font-family:FreeSans;-inkscape-font-specification:FreeSans" id="path3137" inkscape:connector-curvature="0"/>
    </g>
    <g style="font-size:44.44029999px;font-style:italic;font-variant:normal;font-weight:normal;font-stretch:normal;text-align:start;line-height:125%;letter-spacing:0px;word-spacing:0px;writing-mode:lr-tb;text-anchor:start;fill:#000000;fill-opacity:1;stroke:none;display:inline;font-family:Comic Sans MS;-inkscape-font-specification:Sans Italic" id="text7949-5">
      <path d="m 200.16288,1081.236 1.90106,0 0,1.827 c 0.55961,-0.7736 1.14392,-1.3332 1.75292,-1.6788 0.62545,-0.3457 1.36612,-0.5185 2.22202,-0.5185 1.59655,0 2.75693,0.6584 3.48115,1.9751 0.60899,-0.7242 1.20975,-1.2344 1.8023,-1.5307 0.59253,-0.2963 1.31674,-0.4444 2.17264,-0.4444 1.20152,0 2.12324,0.3127 2.76517,0.9382 0.65836,0.609 0.98755,1.4978 0.98757,2.6664 l 0,9.7028 -2.07388,0 0,-8.9128 c -2e-5,-0.8229 -0.21399,-1.4566 -0.64192,-1.901 -0.4115,-0.4609 -0.99581,-0.6913 -1.75292,-0.6913 -0.83944,0 -1.55543,0.3292 -2.14795,0.9876 -0.59255,0.6583 -0.88882,1.4566 -0.88881,2.3948 l 0,8.1227 -2.07388,0 0,-8.9128 c -1e-5,-0.8229 -0.21398,-1.4566 -0.64191,-1.901 -0.41149,-0.4609 -0.9958,-0.6913 -1.75293,-0.6913 -0.83943,0 -1.55541,0.3292 -2.14794,0.9876 -0.59254,0.6583 -0.88881,1.4566 -0.88881,2.3948 l 0,8.1227 -2.07388,0 0,-12.9371" style="font-size:24.68905449px;font-style:normal;fill:#000000;font-family:FreeSans;-inkscape-font-specification:FreeSans" id="path3272"/>
      <path d="m 221.55479,1090.3216 c 0.0987,0.7736 0.3621,1.3908 0.79005,1.8517 0.4444,0.4444 1.23445,0.6666 2.37015,0.6666 0.90526,0 1.62947,-0.1811 2.17264,-0.5432 0.5596,-0.3785 0.83941,-0.8723 0.83942,-1.4813 -1e-5,-0.4773 -0.15637,-0.8559 -0.46909,-1.1357 -0.31274,-0.2798 -0.82298,-0.502 -1.53072,-0.6666 l -1.92575,-0.4691 c -1.53072,-0.3621 -2.60058,-0.8147 -3.20957,-1.3579 -0.59254,-0.5596 -0.88881,-1.3497 -0.88881,-2.3702 0,-1.2015 0.45263,-2.1561 1.3579,-2.8639 0.90526,-0.7242 2.10679,-1.0863 3.6046,-1.0863 1.4978,0 2.64995,0.3457 3.45647,1.0369 0.8065,0.6913 1.21798,1.6707 1.23445,2.938 l -2.17264,0 c -0.0494,-1.3825 -0.9135,-2.0738 -2.59235,-2.0738 -0.83943,0 -1.50603,0.181 -1.99981,0.5431 -0.49379,0.3457 -0.74068,0.8148 -0.74067,1.4073 -1e-5,0.4609 0.18928,0.8394 0.56785,1.1357 0.37856,0.2798 0.98755,0.5185 1.82699,0.716 l 1.97512,0.4691 c 1.28382,0.3127 2.21378,0.7571 2.78986,1.3332 0.57607,0.5596 0.86411,1.3167 0.86412,2.2714 -1e-5,1.2509 -0.48556,2.2467 -1.45665,2.9873 -0.95466,0.7407 -2.24672,1.111 -3.87619,1.111 -3.34125,0 -5.06125,-1.4731 -5.16001,-4.4193 l 2.17264,0" style="font-size:24.68905449px;font-style:normal;fill:#000000;font-family:FreeSans;-inkscape-font-specification:FreeSans" id="path3274"/>
      <path d="m 236.69497,1094.7409 c -1.51427,0 -2.78164,-0.6172 -3.80212,-1.8516 -1.02048,-1.2509 -1.53072,-2.9051 -1.53072,-4.9625 0,-2.1068 0.50201,-3.8104 1.50603,-5.1107 1.02048,-1.3002 2.35369,-1.9504 3.99963,-1.9504 1.61301,0 2.92976,0.7489 3.95025,2.2467 l 0,-1.8764 1.90106,0 0,10.8138 c -2e-5,1.2345 -0.0741,2.2632 -0.22221,3.0862 -0.14814,0.8394 -0.41972,1.613 -0.81473,2.3207 -0.39504,0.7078 -0.98758,1.2345 -1.77762,1.5801 -0.77359,0.3457 -1.76116,0.5185 -2.96268,0.5185 -1.51427,0 -2.72403,-0.3456 -3.62929,-1.0369 -0.90527,-0.6913 -1.41551,-1.646 -1.53072,-2.864 l 2.09856,0 c 0.23043,1.4485 1.2756,2.1727 3.13551,2.1727 1.38258,0 2.329,-0.3951 2.83925,-1.1851 0.51023,-0.7736 0.76535,-1.9587 0.76536,-3.5552 l 0,-0.6666 c -0.57609,0.8229 -1.17686,1.4155 -1.8023,1.7776 -0.60901,0.3621 -1.31676,0.5431 -2.12326,0.5431 m 0.39502,-11.9741 c -1.10278,0 -1.97513,0.4526 -2.61704,1.3579 -0.64192,0.9052 -0.96287,2.1314 -0.96287,3.6786 0,1.5637 0.32095,2.7981 0.96287,3.7034 0.64191,0.8888 1.52249,1.3332 2.64173,1.3332 1.08631,0 1.9422,-0.4362 2.56766,-1.3085 0.62545,-0.8888 0.93818,-2.1068 0.93819,-3.654 -1e-5,-1.613 -0.31274,-2.8639 -0.93819,-3.7527 -0.609,-0.9053 -1.47312,-1.3579 -2.59235,-1.3579" style="font-size:24.68905449px;font-style:normal;fill:#000000;font-family:FreeSans;-inkscape-font-specification:FreeSans" id="path3276"/>
      <path d="m 250.75885,1081.236 0,1.6789 -2.14795,0 0,11.2582 -2.04919,0 0,-11.2582 -1.72823,0 0,-1.6789 1.72823,0 0,-2.1973 c 0,-0.9217 0.26335,-1.6377 0.79005,-2.1479 0.54316,-0.5267 1.29206,-0.7901 2.24671,-0.7901 0.37856,0 0.76535,0.041 1.16038,0.1235 l 0,1.7035 c -0.31273,-0.016 -0.55139,-0.025 -0.71598,-0.025 -0.95465,0 -1.43197,0.4362 -1.43197,1.3085 l 0,2.0245 2.14795,0" style="font-size:24.68905449px;font-style:normal;fill:#000000;font-family:FreeSans;-inkscape-font-specification:FreeSans" id="path3278"/>
      <path d="m 252.72356,1081.236 1.90106,0 0,1.827 c 0.55962,-0.7736 1.14392,-1.3332 1.75292,-1.6788 0.62545,-0.3457 1.36613,-0.5185 2.22202,-0.5185 1.59655,0 2.75693,0.6584 3.48116,1.9751 0.60898,-0.7242 1.20975,-1.2344 1.8023,-1.5307 0.59252,-0.2963 1.31673,-0.4444 2.17263,-0.4444 1.20152,0 2.12325,0.3127 2.76518,0.9382 0.65835,0.609 0.98754,1.4978 0.98756,2.6664 l 0,9.7028 -2.07388,0 0,-8.9128 c -2e-5,-0.8229 -0.21399,-1.4566 -0.64192,-1.901 -0.4115,-0.4609 -0.9958,-0.6913 -1.75292,-0.6913 -0.83944,0 -1.55542,0.3292 -2.14795,0.9876 -0.59255,0.6583 -0.88881,1.4566 -0.8888,2.3948 l 0,8.1227 -2.07388,0 0,-8.9128 c -10e-6,-0.8229 -0.21398,-1.4566 -0.64192,-1.901 -0.41149,-0.4609 -0.9958,-0.6913 -1.75292,-0.6913 -0.83943,0 -1.55542,0.3292 -2.14795,0.9876 -0.59254,0.6583 -0.88881,1.4566 -0.8888,2.3948 l 0,8.1227 -2.07389,0 0,-12.9371" style="font-size:24.68905449px;font-style:normal;fill:#000000;font-family:FreeSans;-inkscape-font-specification:FreeSans" id="path3280"/>
      <path d="m 277.85664,1081.236 0,1.6789 -2.12326,0 0,8.8634 c -1e-5,0.4608 0.0741,0.7735 0.2222,0.9381 0.16459,0.1482 0.46909,0.2222 0.91349,0.2222 0.41148,0 0.74067,-0.033 0.98757,-0.099 l 0,1.7282 c -0.64192,0.1152 -1.20154,0.1728 -1.67886,0.1728 -0.80651,0 -1.42374,-0.181 -1.85168,-0.5431 -0.42794,-0.3457 -0.64192,-0.8477 -0.64191,-1.506 l 0,-9.7769 -1.75293,0 0,-1.6789 1.75293,0 0,-3.5552 2.04919,0 0,3.5552 2.12326,0" style="font-size:24.68905449px;font-style:normal;fill:#000000;font-family:FreeSans;-inkscape-font-specification:FreeSans" id="path3282"/>
    </g>
  </g>
</svg>